<?xml version="1.0" encoding="utf-8" ?>
<svg baseProfile="full" height="1405" version="1.1" width="1405" xmlns="http://www.w3.org/2000/svg" xmlns:ev="http://www.w3.org/2001/xml-events" xmlns:xlink="http://www.w3.org/1999/xlink"><defs /><g stroke="black" stroke-linecap="round" stroke-width="0.25"><g fill="#99BBDD"><rect height="35" width="35" x="0" y="175" /><rect height="35" width="35" x="35" y="175" /><rect height="35" width="35" x="70" y="175" /><rect height="35" width="35" x="0" y="210" /><rect height="35" width="35" x="0" y="245" /></g><g fill="#DDBB99"><rect height="35" width="35" x="105" y="175" /><rect height="35" width="35" x="140" y="175" /><rect height="35" width="35" x="140" y="210" /><rect height="35" width="35" x="175" y="210" /><rect height="35" width="35" x="140" y="245" /></g><g fill="#CCCCCC"><rect height="35" width="35" x="175" y="0" /><rect height="35" width="35" x="210" y="0" /><rect height="35" width="35" x="105" y="35" /><rect height="35" width="35" x="140" y="35" /><rect height="35" width="35" x="175" y="35" /><rect height="35" width="35" x="210" y="35" /><rect height="35" width="35" x="70" y="70" /><rect height="35" width="35" x="105" y="70" /><rect height="35" width="35" x="140" y="70" /><rect height="35" width="35" x="175" y="70" /><rect height="35" width="35" x="210" y="70" /><rect height="35" width="35" x="35" y="105" /><rect height="35" width="35" x="70" y="105" /><rect height="35" width="35" x="105" y="105" /><rect height="35" width="35" x="140" y="105" /><rect height="35" width="35" x="175" y="105" /><rect height="35" width="35" x="210" y="105" /><rect height="35" width="35" x="35" y="140" /><rect height="35" width="35" x="70" y="140" /><rect height="35" width="35" x="105" y="140" /><rect height="35" width="35" x="140" y="140" /><rect height="35" width="35" x="175" y="140" /><rect height="35" width="35" x="210" y="140" /><rect height="35" width="35" x="175" y="175" /><rect height="35" width="35" x="210" y="175" /><rect height="35" width="35" x="35" y="210" /><rect height="35" width="35" x="70" y="210" /><rect height="35" width="35" x="105" y="210" /><rect height="35" width="35" x="35" y="245" /><rect height="35" width="35" x="70" y="245" /><rect height="35" width="35" x="105" y="245" /><rect height="35" width="35" x="175" y="245" /><rect height="35" width="35" x="35" y="280" /><rect height="35" width="35" x="70" y="280" /><rect height="35" width="35" x="105" y="280" /><rect height="35" width="35" x="140" y="280" /><rect height="35" width="35" x="175" y="280" /><rect height="35" width="35" x="35" y="315" /><rect height="35" width="35" x="70" y="315" /><rect height="35" width="35" x="105" y="315" /><rect height="35" width="35" x="140" y="315" /><rect height="35" width="35" x="175" y="315" /><rect height="35" width="35" x="70" y="350" /><rect height="35" width="35" x="105" y="350" /><rect height="35" width="35" x="140" y="350" /><rect height="35" width="35" x="175" y="350" /><rect height="35" width="35" x="105" y="385" /><rect height="35" width="35" x="140" y="385" /><rect height="35" width="35" x="175" y="385" /><rect height="35" width="35" x="175" y="420" /></g><g fill="#111111"><rect height="35" width="35" x="140" y="0" /><rect height="35" width="35" x="0" y="140" /><rect height="35" width="35" x="0" y="280" /><rect height="35" width="35" x="140" y="420" /><rect height="35" width="35" x="210" y="210" /></g><path d="M 140 0 l 35 0 M 175 0 l 35 0 M 210 0 l 35 0 M 105 35 l 35 0 M 140 35 l 35 0 M 70 70 l 35 0 M 35 105 l 35 0 M 0 140 l 35 0 M 0 175 l 35 0 M 35 175 l 35 0 M 70 175 l 35 0 M 105 175 l 35 0 M 140 175 l 35 0 M 35 210 l 35 0 M 70 210 l 35 0 M 105 210 l 35 0 M 175 210 l 35 0 M 210 210 l 35 0 M 175 245 l 35 0 M 210 245 l 35 0 M 0 280 l 35 0 M 140 280 l 35 0 M 0 315 l 35 0 M 35 350 l 35 0 M 70 385 l 35 0 M 105 420 l 35 0 M 140 420 l 35 0 M 140 455 l 35 0 M 175 455 l 35 0 M 140 0 l 0 35 M 175 0 l 0 35 M 245 0 l 0 35 M 105 35 l 0 35 M 245 35 l 0 35 M 70 70 l 0 35 M 245 70 l 0 35 M 35 105 l 0 35 M 245 105 l 0 35 M 0 140 l 0 35 M 35 140 l 0 35 M 245 140 l 0 35 M 0 175 l 0 35 M 105 175 l 0 35 M 175 175 l 0 35 M 245 175 l 0 35 M 0 210 l 0 35 M 35 210 l 0 35 M 140 210 l 0 35 M 210 210 l 0 35 M 245 210 l 0 35 M 0 245 l 0 35 M 35 245 l 0 35 M 140 245 l 0 35 M 175 245 l 0 35 M 210 245 l 0 35 M 0 280 l 0 35 M 35 280 l 0 35 M 210 280 l 0 35 M 35 315 l 0 35 M 210 315 l 0 35 M 70 350 l 0 35 M 210 350 l 0 35 M 105 385 l 0 35 M 210 385 l 0 35 M 140 420 l 0 35 M 175 420 l 0 35 M 210 420 l 0 35" stroke-width="3" /></g></svg>