<?xml version="1.0" encoding="utf-8" ?>
<svg baseProfile="full" height="2305" version="1.1" width="2305" xmlns="http://www.w3.org/2000/svg" xmlns:ev="http://www.w3.org/2001/xml-events" xmlns:xlink="http://www.w3.org/1999/xlink"><defs /><g stroke="black" stroke-linecap="round" stroke-width="0.25"><g fill="#EEAAAA"><rect height="25" width="25" x="75" y="25" /><rect height="25" width="25" x="100" y="25" /><rect height="25" width="25" x="50" y="50" /><rect height="25" width="25" x="75" y="50" /><rect height="25" width="25" x="75" y="75" /></g><g fill="#DDBB99"><rect height="25" width="25" x="75" y="200" /><rect height="25" width="25" x="100" y="200" /><rect height="25" width="25" x="100" y="225" /><rect height="25" width="25" x="125" y="225" /><rect height="25" width="25" x="100" y="250" /></g><g fill="#BBDD99"><rect height="25" width="25" x="25" y="225" /><rect height="25" width="25" x="50" y="225" /><rect height="25" width="25" x="75" y="225" /><rect height="25" width="25" x="50" y="250" /><rect height="25" width="25" x="75" y="250" /></g><g fill="#DD99BB"><rect height="25" width="25" x="125" y="0" /><rect height="25" width="25" x="150" y="0" /><rect height="25" width="25" x="125" y="25" /><rect height="25" width="25" x="100" y="50" /><rect height="25" width="25" x="125" y="50" /></g><g fill="#99BBDD"><rect height="25" width="25" x="75" y="150" /><rect height="25" width="25" x="100" y="150" /><rect height="25" width="25" x="125" y="150" /><rect height="25" width="25" x="125" y="175" /><rect height="25" width="25" x="125" y="200" /></g><g fill="#BB99DD"><rect height="25" width="25" x="25" y="75" /><rect height="25" width="25" x="25" y="100" /><rect height="25" width="25" x="0" y="125" /><rect height="25" width="25" x="25" y="125" /><rect height="25" width="25" x="0" y="150" /></g><g fill="#CC88CC"><rect height="25" width="25" x="150" y="25" /><rect height="25" width="25" x="150" y="50" /><rect height="25" width="25" x="125" y="75" /><rect height="25" width="25" x="150" y="75" /><rect height="25" width="25" x="125" y="100" /></g><g fill="#AAEEAA"><rect height="25" width="25" x="50" y="175" /><rect height="25" width="25" x="75" y="175" /><rect height="25" width="25" x="100" y="175" /><rect height="25" width="25" x="25" y="200" /><rect height="25" width="25" x="50" y="200" /></g><g fill="#CCCC88"><rect height="25" width="25" x="150" y="100" /><rect height="25" width="25" x="75" y="125" /><rect height="25" width="25" x="100" y="125" /><rect height="25" width="25" x="125" y="125" /><rect height="25" width="25" x="150" y="125" /></g><g fill="#88CCCC"><rect height="25" width="25" x="50" y="75" /><rect height="25" width="25" x="100" y="75" /><rect height="25" width="25" x="50" y="100" /><rect height="25" width="25" x="75" y="100" /><rect height="25" width="25" x="100" y="100" /></g><g fill="#AAAAEE"><rect height="25" width="25" x="50" y="125" /><rect height="25" width="25" x="25" y="150" /><rect height="25" width="25" x="50" y="150" /><rect height="25" width="25" x="0" y="175" /><rect height="25" width="25" x="25" y="175" /></g><g fill="#99DDBB"><rect height="25" width="25" x="125" y="250" /><rect height="25" width="25" x="75" y="275" /><rect height="25" width="25" x="100" y="275" /><rect height="25" width="25" x="125" y="275" /><rect height="25" width="25" x="125" y="300" /></g><path d="M 125 0 l 25 0 M 150 0 l 25 0 M 75 25 l 25 0 M 100 25 l 25 0 M 150 25 l 25 0 M 50 50 l 25 0 M 100 50 l 25 0 M 25 75 l 25 0 M 50 75 l 25 0 M 100 75 l 25 0 M 125 75 l 25 0 M 75 100 l 25 0 M 150 100 l 25 0 M 0 125 l 25 0 M 50 125 l 25 0 M 75 125 l 25 0 M 100 125 l 25 0 M 125 125 l 25 0 M 25 150 l 25 0 M 75 150 l 25 0 M 100 150 l 25 0 M 125 150 l 25 0 M 150 150 l 25 0 M 0 175 l 25 0 M 50 175 l 25 0 M 75 175 l 25 0 M 100 175 l 25 0 M 0 200 l 25 0 M 25 200 l 25 0 M 75 200 l 25 0 M 100 200 l 25 0 M 25 225 l 25 0 M 50 225 l 25 0 M 75 225 l 25 0 M 125 225 l 25 0 M 25 250 l 25 0 M 125 250 l 25 0 M 50 275 l 25 0 M 75 275 l 25 0 M 100 275 l 25 0 M 75 300 l 25 0 M 100 300 l 25 0 M 125 325 l 25 0 M 125 0 l 0 25 M 175 0 l 0 25 M 75 25 l 0 25 M 125 25 l 0 25 M 150 25 l 0 25 M 175 25 l 0 25 M 50 50 l 0 25 M 100 50 l 0 25 M 150 50 l 0 25 M 175 50 l 0 25 M 25 75 l 0 25 M 50 75 l 0 25 M 75 75 l 0 25 M 100 75 l 0 25 M 125 75 l 0 25 M 175 75 l 0 25 M 25 100 l 0 25 M 50 100 l 0 25 M 125 100 l 0 25 M 150 100 l 0 25 M 175 100 l 0 25 M 0 125 l 0 25 M 50 125 l 0 25 M 75 125 l 0 25 M 175 125 l 0 25 M 0 150 l 0 25 M 25 150 l 0 25 M 75 150 l 0 25 M 150 150 l 0 25 M 0 175 l 0 25 M 50 175 l 0 25 M 125 175 l 0 25 M 150 175 l 0 25 M 25 200 l 0 25 M 75 200 l 0 25 M 125 200 l 0 25 M 150 200 l 0 25 M 25 225 l 0 25 M 100 225 l 0 25 M 150 225 l 0 25 M 50 250 l 0 25 M 100 250 l 0 25 M 125 250 l 0 25 M 150 250 l 0 25 M 75 275 l 0 25 M 150 275 l 0 25 M 125 300 l 0 25 M 150 300 l 0 25" stroke-width="3" /></g><g stroke="black" stroke-linecap="round" stroke-width="0.25"><g fill="#EEAAAA"><rect height="25" width="25" x="300" y="25" /><rect height="25" width="25" x="325" y="25" /><rect height="25" width="25" x="275" y="50" /><rect height="25" width="25" x="300" y="50" /><rect height="25" width="25" x="300" y="75" /></g><g fill="#DDBB99"><rect height="25" width="25" x="375" y="100" /><rect height="25" width="25" x="325" y="125" /><rect height="25" width="25" x="350" y="125" /><rect height="25" width="25" x="375" y="125" /><rect height="25" width="25" x="350" y="150" /></g><g fill="#BBDD99"><rect height="25" width="25" x="275" y="175" /><rect height="25" width="25" x="300" y="175" /><rect height="25" width="25" x="275" y="200" /><rect height="25" width="25" x="300" y="200" /><rect height="25" width="25" x="325" y="200" /></g><g fill="#DD99BB"><rect height="25" width="25" x="350" y="0" /><rect height="25" width="25" x="375" y="0" /><rect height="25" width="25" x="350" y="25" /><rect height="25" width="25" x="325" y="50" /><rect height="25" width="25" x="350" y="50" /></g><g fill="#99BBDD"><rect height="25" width="25" x="350" y="175" /><rect height="25" width="25" x="350" y="200" /><rect height="25" width="25" x="300" y="225" /><rect height="25" width="25" x="325" y="225" /><rect height="25" width="25" x="350" y="225" /></g><g fill="#BB99DD"><rect height="25" width="25" x="375" y="25" /><rect height="25" width="25" x="375" y="50" /><rect height="25" width="25" x="350" y="75" /><rect height="25" width="25" x="375" y="75" /><rect height="25" width="25" x="350" y="100" /></g><g fill="#CC88CC"><rect height="25" width="25" x="250" y="225" /><rect height="25" width="25" x="275" y="225" /><rect height="25" width="25" x="275" y="250" /><rect height="25" width="25" x="300" y="250" /><rect height="25" width="25" x="325" y="250" /></g><g fill="#AAEEAA"><rect height="25" width="25" x="225" y="125" /><rect height="25" width="25" x="225" y="150" /><rect height="25" width="25" x="225" y="175" /><rect height="25" width="25" x="250" y="175" /><rect height="25" width="25" x="250" y="200" /></g><g fill="#CCCC88"><rect height="25" width="25" x="250" y="75" /><rect height="25" width="25" x="250" y="100" /><rect height="25" width="25" x="250" y="125" /><rect height="25" width="25" x="250" y="150" /><rect height="25" width="25" x="275" y="150" /></g><g fill="#88CCCC"><rect height="25" width="25" x="275" y="75" /><rect height="25" width="25" x="325" y="75" /><rect height="25" width="25" x="275" y="100" /><rect height="25" width="25" x="300" y="100" /><rect height="25" width="25" x="325" y="100" /></g><g fill="#AAAAEE"><rect height="25" width="25" x="275" y="125" /><rect height="25" width="25" x="300" y="125" /><rect height="25" width="25" x="300" y="150" /><rect height="25" width="25" x="325" y="150" /><rect height="25" width="25" x="325" y="175" /></g><g fill="#99DDBB"><rect height="25" width="25" x="350" y="250" /><rect height="25" width="25" x="300" y="275" /><rect height="25" width="25" x="325" y="275" /><rect height="25" width="25" x="350" y="275" /><rect height="25" width="25" x="350" y="300" /></g><path d="M 350 0 l 25 0 M 375 0 l 25 0 M 300 25 l 25 0 M 325 25 l 25 0 M 375 25 l 25 0 M 275 50 l 25 0 M 325 50 l 25 0 M 250 75 l 25 0 M 275 75 l 25 0 M 325 75 l 25 0 M 350 75 l 25 0 M 300 100 l 25 0 M 375 100 l 25 0 M 225 125 l 25 0 M 275 125 l 25 0 M 300 125 l 25 0 M 325 125 l 25 0 M 350 125 l 25 0 M 275 150 l 25 0 M 325 150 l 25 0 M 375 150 l 25 0 M 250 175 l 25 0 M 275 175 l 25 0 M 300 175 l 25 0 M 350 175 l 25 0 M 225 200 l 25 0 M 325 200 l 25 0 M 250 225 l 25 0 M 275 225 l 25 0 M 300 225 l 25 0 M 325 225 l 25 0 M 250 250 l 25 0 M 300 250 l 25 0 M 325 250 l 25 0 M 350 250 l 25 0 M 275 275 l 25 0 M 300 275 l 25 0 M 325 275 l 25 0 M 300 300 l 25 0 M 325 300 l 25 0 M 350 325 l 25 0 M 350 0 l 0 25 M 400 0 l 0 25 M 300 25 l 0 25 M 350 25 l 0 25 M 375 25 l 0 25 M 400 25 l 0 25 M 275 50 l 0 25 M 325 50 l 0 25 M 375 50 l 0 25 M 400 50 l 0 25 M 250 75 l 0 25 M 275 75 l 0 25 M 300 75 l 0 25 M 325 75 l 0 25 M 350 75 l 0 25 M 400 75 l 0 25 M 250 100 l 0 25 M 275 100 l 0 25 M 350 100 l 0 25 M 375 100 l 0 25 M 400 100 l 0 25 M 225 125 l 0 25 M 250 125 l 0 25 M 275 125 l 0 25 M 325 125 l 0 25 M 400 125 l 0 25 M 225 150 l 0 25 M 250 150 l 0 25 M 300 150 l 0 25 M 350 150 l 0 25 M 375 150 l 0 25 M 225 175 l 0 25 M 275 175 l 0 25 M 325 175 l 0 25 M 350 175 l 0 25 M 375 175 l 0 25 M 250 200 l 0 25 M 275 200 l 0 25 M 350 200 l 0 25 M 375 200 l 0 25 M 250 225 l 0 25 M 300 225 l 0 25 M 375 225 l 0 25 M 275 250 l 0 25 M 350 250 l 0 25 M 375 250 l 0 25 M 300 275 l 0 25 M 375 275 l 0 25 M 350 300 l 0 25 M 375 300 l 0 25" stroke-width="3" /></g><g stroke="black" stroke-linecap="round" stroke-width="0.25"><g fill="#EEAAAA"><rect height="25" width="25" x="500" y="50" /><rect height="25" width="25" x="525" y="50" /><rect height="25" width="25" x="475" y="75" /><rect height="25" width="25" x="500" y="75" /><rect height="25" width="25" x="500" y="100" /></g><g fill="#DDBB99"><rect height="25" width="25" x="475" y="100" /><rect height="25" width="25" x="450" y="125" /><rect height="25" width="25" x="475" y="125" /><rect height="25" width="25" x="500" y="125" /><rect height="25" width="25" x="450" y="150" /></g><g fill="#BBDD99"><rect height="25" width="25" x="500" y="175" /><rect height="25" width="25" x="475" y="200" /><rect height="25" width="25" x="500" y="200" /><rect height="25" width="25" x="475" y="225" /><rect height="25" width="25" x="500" y="225" /></g><g fill="#DD99BB"><rect height="25" width="25" x="525" y="200" /><rect height="25" width="25" x="550" y="200" /><rect height="25" width="25" x="525" y="225" /><rect height="25" width="25" x="500" y="250" /><rect height="25" width="25" x="525" y="250" /></g><g fill="#99BBDD"><rect height="25" width="25" x="525" y="25" /><rect height="25" width="25" x="550" y="25" /><rect height="25" width="25" x="575" y="25" /><rect height="25" width="25" x="575" y="50" /><rect height="25" width="25" x="575" y="75" /></g><g fill="#BB99DD"><rect height="25" width="25" x="575" y="175" /><rect height="25" width="25" x="575" y="200" /><rect height="25" width="25" x="550" y="225" /><rect height="25" width="25" x="575" y="225" /><rect height="25" width="25" x="550" y="250" /></g><g fill="#CC88CC"><rect height="25" width="25" x="550" y="50" /><rect height="25" width="25" x="525" y="75" /><rect height="25" width="25" x="550" y="75" /><rect height="25" width="25" x="525" y="100" /><rect height="25" width="25" x="525" y="125" /></g><g fill="#AAEEAA"><rect height="25" width="25" x="475" y="150" /><rect height="25" width="25" x="500" y="150" /><rect height="25" width="25" x="525" y="150" /><rect height="25" width="25" x="450" y="175" /><rect height="25" width="25" x="475" y="175" /></g><g fill="#CCCC88"><rect height="25" width="25" x="575" y="0" /><rect height="25" width="25" x="600" y="0" /><rect height="25" width="25" x="600" y="25" /><rect height="25" width="25" x="600" y="50" /><rect height="25" width="25" x="600" y="75" /></g><g fill="#88CCCC"><rect height="25" width="25" x="550" y="100" /><rect height="25" width="25" x="575" y="100" /><rect height="25" width="25" x="600" y="100" /><rect height="25" width="25" x="550" y="125" /><rect height="25" width="25" x="600" y="125" /></g><g fill="#AAAAEE"><rect height="25" width="25" x="575" y="125" /><rect height="25" width="25" x="550" y="150" /><rect height="25" width="25" x="575" y="150" /><rect height="25" width="25" x="525" y="175" /><rect height="25" width="25" x="550" y="175" /></g><g fill="#99DDBB"><rect height="25" width="25" x="575" y="250" /><rect height="25" width="25" x="525" y="275" /><rect height="25" width="25" x="550" y="275" /><rect height="25" width="25" x="575" y="275" /><rect height="25" width="25" x="575" y="300" /></g><path d="M 575 0 l 25 0 M 600 0 l 25 0 M 525 25 l 25 0 M 550 25 l 25 0 M 575 25 l 25 0 M 500 50 l 25 0 M 525 50 l 25 0 M 550 50 l 25 0 M 475 75 l 25 0 M 525 75 l 25 0 M 475 100 l 25 0 M 550 100 l 25 0 M 575 100 l 25 0 M 600 100 l 25 0 M 450 125 l 25 0 M 500 125 l 25 0 M 575 125 l 25 0 M 475 150 l 25 0 M 500 150 l 25 0 M 525 150 l 25 0 M 550 150 l 25 0 M 600 150 l 25 0 M 450 175 l 25 0 M 500 175 l 25 0 M 525 175 l 25 0 M 575 175 l 25 0 M 450 200 l 25 0 M 475 200 l 25 0 M 525 200 l 25 0 M 550 200 l 25 0 M 550 225 l 25 0 M 475 250 l 25 0 M 500 250 l 25 0 M 575 250 l 25 0 M 500 275 l 25 0 M 525 275 l 25 0 M 550 275 l 25 0 M 525 300 l 25 0 M 550 300 l 25 0 M 575 325 l 25 0 M 575 0 l 0 25 M 625 0 l 0 25 M 525 25 l 0 25 M 600 25 l 0 25 M 625 25 l 0 25 M 500 50 l 0 25 M 550 50 l 0 25 M 575 50 l 0 25 M 600 50 l 0 25 M 625 50 l 0 25 M 475 75 l 0 25 M 525 75 l 0 25 M 575 75 l 0 25 M 600 75 l 0 25 M 625 75 l 0 25 M 475 100 l 0 25 M 500 100 l 0 25 M 525 100 l 0 25 M 550 100 l 0 25 M 625 100 l 0 25 M 450 125 l 0 25 M 525 125 l 0 25 M 550 125 l 0 25 M 575 125 l 0 25 M 600 125 l 0 25 M 625 125 l 0 25 M 450 150 l 0 25 M 475 150 l 0 25 M 550 150 l 0 25 M 600 150 l 0 25 M 450 175 l 0 25 M 500 175 l 0 25 M 525 175 l 0 25 M 575 175 l 0 25 M 600 175 l 0 25 M 475 200 l 0 25 M 525 200 l 0 25 M 575 200 l 0 25 M 600 200 l 0 25 M 475 225 l 0 25 M 525 225 l 0 25 M 550 225 l 0 25 M 600 225 l 0 25 M 500 250 l 0 25 M 550 250 l 0 25 M 575 250 l 0 25 M 600 250 l 0 25 M 525 275 l 0 25 M 600 275 l 0 25 M 575 300 l 0 25 M 600 300 l 0 25" stroke-width="3" /></g><g stroke="black" stroke-linecap="round" stroke-width="0.25"><g fill="#EEAAAA"><rect height="25" width="25" x="50" y="400" /><rect height="25" width="25" x="75" y="400" /><rect height="25" width="25" x="25" y="425" /><rect height="25" width="25" x="50" y="425" /><rect height="25" width="25" x="50" y="450" /></g><g fill="#DDBB99"><rect height="25" width="25" x="125" y="350" /><rect height="25" width="25" x="75" y="375" /><rect height="25" width="25" x="100" y="375" /><rect height="25" width="25" x="125" y="375" /><rect height="25" width="25" x="100" y="400" /></g><g fill="#BBDD99"><rect height="25" width="25" x="25" y="525" /><rect height="25" width="25" x="50" y="525" /><rect height="25" width="25" x="25" y="550" /><rect height="25" width="25" x="50" y="550" /><rect height="25" width="25" x="25" y="575" /></g><g fill="#DD99BB"><rect height="25" width="25" x="75" y="425" /><rect height="25" width="25" x="100" y="425" /><rect height="25" width="25" x="75" y="450" /><rect height="25" width="25" x="50" y="475" /><rect height="25" width="25" x="75" y="475" /></g><g fill="#99BBDD"><rect height="25" width="25" x="125" y="475" /><rect height="25" width="25" x="125" y="500" /><rect height="25" width="25" x="75" y="525" /><rect height="25" width="25" x="100" y="525" /><rect height="25" width="25" x="125" y="525" /></g><g fill="#BB99DD"><rect height="25" width="25" x="150" y="350" /><rect height="25" width="25" x="150" y="375" /><rect height="25" width="25" x="125" y="400" /><rect height="25" width="25" x="150" y="400" /><rect height="25" width="25" x="125" y="425" /></g><g fill="#CC88CC"><rect height="25" width="25" x="25" y="450" /><rect height="25" width="25" x="0" y="475" /><rect height="25" width="25" x="25" y="475" /><rect height="25" width="25" x="0" y="500" /><rect height="25" width="25" x="0" y="525" /></g><g fill="#AAEEAA"><rect height="25" width="25" x="100" y="575" /><rect height="25" width="25" x="100" y="600" /><rect height="25" width="25" x="125" y="600" /><rect height="25" width="25" x="125" y="625" /><rect height="25" width="25" x="125" y="650" /></g><g fill="#CCCC88"><rect height="25" width="25" x="100" y="475" /><rect height="25" width="25" x="25" y="500" /><rect height="25" width="25" x="50" y="500" /><rect height="25" width="25" x="75" y="500" /><rect height="25" width="25" x="100" y="500" /></g><g fill="#88CCCC"><rect height="25" width="25" x="75" y="550" /><rect height="25" width="25" x="100" y="550" /><rect height="25" width="25" x="125" y="550" /><rect height="25" width="25" x="75" y="575" /><rect height="25" width="25" x="125" y="575" /></g><g fill="#AAAAEE"><rect height="25" width="25" x="50" y="575" /><rect height="25" width="25" x="50" y="600" /><rect height="25" width="25" x="75" y="600" /><rect height="25" width="25" x="75" y="625" /><rect height="25" width="25" x="100" y="625" /></g><g fill="#99DDBB"><rect height="25" width="25" x="150" y="425" /><rect height="25" width="25" x="100" y="450" /><rect height="25" width="25" x="125" y="450" /><rect height="25" width="25" x="150" y="450" /><rect height="25" width="25" x="150" y="475" /></g><path d="M 125 350 l 25 0 M 150 350 l 25 0 M 75 375 l 25 0 M 100 375 l 25 0 M 50 400 l 25 0 M 75 400 l 25 0 M 125 400 l 25 0 M 25 425 l 25 0 M 75 425 l 25 0 M 100 425 l 25 0 M 150 425 l 25 0 M 25 450 l 25 0 M 100 450 l 25 0 M 125 450 l 25 0 M 0 475 l 25 0 M 50 475 l 25 0 M 100 475 l 25 0 M 125 475 l 25 0 M 25 500 l 25 0 M 50 500 l 25 0 M 75 500 l 25 0 M 150 500 l 25 0 M 25 525 l 25 0 M 50 525 l 25 0 M 75 525 l 25 0 M 100 525 l 25 0 M 0 550 l 25 0 M 75 550 l 25 0 M 100 550 l 25 0 M 125 550 l 25 0 M 50 575 l 25 0 M 100 575 l 25 0 M 25 600 l 25 0 M 75 600 l 25 0 M 125 600 l 25 0 M 50 625 l 25 0 M 100 625 l 25 0 M 75 650 l 25 0 M 100 650 l 25 0 M 125 675 l 25 0 M 125 350 l 0 25 M 150 350 l 0 25 M 175 350 l 0 25 M 75 375 l 0 25 M 150 375 l 0 25 M 175 375 l 0 25 M 50 400 l 0 25 M 100 400 l 0 25 M 125 400 l 0 25 M 175 400 l 0 25 M 25 425 l 0 25 M 75 425 l 0 25 M 125 425 l 0 25 M 150 425 l 0 25 M 175 425 l 0 25 M 25 450 l 0 25 M 50 450 l 0 25 M 75 450 l 0 25 M 100 450 l 0 25 M 175 450 l 0 25 M 0 475 l 0 25 M 50 475 l 0 25 M 100 475 l 0 25 M 125 475 l 0 25 M 150 475 l 0 25 M 175 475 l 0 25 M 0 500 l 0 25 M 25 500 l 0 25 M 125 500 l 0 25 M 150 500 l 0 25 M 0 525 l 0 25 M 25 525 l 0 25 M 75 525 l 0 25 M 150 525 l 0 25 M 25 550 l 0 25 M 75 550 l 0 25 M 150 550 l 0 25 M 25 575 l 0 25 M 50 575 l 0 25 M 75 575 l 0 25 M 100 575 l 0 25 M 125 575 l 0 25 M 150 575 l 0 25 M 50 600 l 0 25 M 100 600 l 0 25 M 150 600 l 0 25 M 75 625 l 0 25 M 125 625 l 0 25 M 150 625 l 0 25 M 125 650 l 0 25 M 150 650 l 0 25" stroke-width="3" /></g><g stroke="black" stroke-linecap="round" stroke-width="0.25"><g fill="#EEAAAA"><rect height="25" width="25" x="275" y="400" /><rect height="25" width="25" x="300" y="400" /><rect height="25" width="25" x="250" y="425" /><rect height="25" width="25" x="275" y="425" /><rect height="25" width="25" x="275" y="450" /></g><g fill="#DDBB99"><rect height="25" width="25" x="300" y="550" /><rect height="25" width="25" x="250" y="575" /><rect height="25" width="25" x="275" y="575" /><rect height="25" width="25" x="300" y="575" /><rect height="25" width="25" x="275" y="600" /></g><g fill="#BBDD99"><rect height="25" width="25" x="300" y="375" /><rect height="25" width="25" x="325" y="375" /><rect height="25" width="25" x="350" y="375" /><rect height="25" width="25" x="325" y="400" /><rect height="25" width="25" x="350" y="400" /></g><g fill="#DD99BB"><rect height="25" width="25" x="300" y="425" /><rect height="25" width="25" x="325" y="425" /><rect height="25" width="25" x="300" y="450" /><rect height="25" width="25" x="275" y="475" /><rect height="25" width="25" x="300" y="475" /></g><g fill="#99BBDD"><rect height="25" width="25" x="250" y="450" /><rect height="25" width="25" x="250" y="475" /><rect height="25" width="25" x="250" y="500" /><rect height="25" width="25" x="275" y="500" /><rect height="25" width="25" x="300" y="500" /></g><g fill="#BB99DD"><rect height="25" width="25" x="375" y="450" /><rect height="25" width="25" x="350" y="475" /><rect height="25" width="25" x="375" y="475" /><rect height="25" width="25" x="350" y="500" /><rect height="25" width="25" x="350" y="525" /></g><g fill="#CC88CC"><rect height="25" width="25" x="350" y="425" /><rect height="25" width="25" x="325" y="450" /><rect height="25" width="25" x="350" y="450" /><rect height="25" width="25" x="325" y="475" /><rect height="25" width="25" x="325" y="500" /></g><g fill="#AAEEAA"><rect height="25" width="25" x="225" y="475" /><rect height="25" width="25" x="225" y="500" /><rect height="25" width="25" x="225" y="525" /><rect height="25" width="25" x="250" y="525" /><rect height="25" width="25" x="250" y="550" /></g><g fill="#CCCC88"><rect height="25" width="25" x="350" y="350" /><rect height="25" width="25" x="375" y="350" /><rect height="25" width="25" x="375" y="375" /><rect height="25" width="25" x="375" y="400" /><rect height="25" width="25" x="375" y="425" /></g><g fill="#88CCCC"><rect height="25" width="25" x="275" y="525" /><rect height="25" width="25" x="300" y="525" /><rect height="25" width="25" x="325" y="525" /><rect height="25" width="25" x="275" y="550" /><rect height="25" width="25" x="325" y="550" /></g><g fill="#AAAAEE"><rect height="25" width="25" x="350" y="550" /><rect height="25" width="25" x="325" y="575" /><rect height="25" width="25" x="350" y="575" /><rect height="25" width="25" x="300" y="600" /><rect height="25" width="25" x="325" y="600" /></g><g fill="#99DDBB"><rect height="25" width="25" x="350" y="600" /><rect height="25" width="25" x="300" y="625" /><rect height="25" width="25" x="325" y="625" /><rect height="25" width="25" x="350" y="625" /><rect height="25" width="25" x="350" y="650" /></g><path d="M 350 350 l 25 0 M 375 350 l 25 0 M 300 375 l 25 0 M 325 375 l 25 0 M 350 375 l 25 0 M 275 400 l 25 0 M 300 400 l 25 0 M 250 425 l 25 0 M 300 425 l 25 0 M 325 425 l 25 0 M 350 425 l 25 0 M 250 450 l 25 0 M 325 450 l 25 0 M 375 450 l 25 0 M 225 475 l 25 0 M 275 475 l 25 0 M 350 475 l 25 0 M 275 500 l 25 0 M 300 500 l 25 0 M 375 500 l 25 0 M 250 525 l 25 0 M 275 525 l 25 0 M 300 525 l 25 0 M 325 525 l 25 0 M 225 550 l 25 0 M 300 550 l 25 0 M 350 550 l 25 0 M 250 575 l 25 0 M 275 575 l 25 0 M 325 575 l 25 0 M 250 600 l 25 0 M 300 600 l 25 0 M 350 600 l 25 0 M 275 625 l 25 0 M 300 625 l 25 0 M 325 625 l 25 0 M 300 650 l 25 0 M 325 650 l 25 0 M 350 675 l 25 0 M 350 350 l 0 25 M 400 350 l 0 25 M 300 375 l 0 25 M 375 375 l 0 25 M 400 375 l 0 25 M 275 400 l 0 25 M 325 400 l 0 25 M 375 400 l 0 25 M 400 400 l 0 25 M 250 425 l 0 25 M 300 425 l 0 25 M 350 425 l 0 25 M 375 425 l 0 25 M 400 425 l 0 25 M 250 450 l 0 25 M 275 450 l 0 25 M 300 450 l 0 25 M 325 450 l 0 25 M 375 450 l 0 25 M 400 450 l 0 25 M 225 475 l 0 25 M 250 475 l 0 25 M 275 475 l 0 25 M 325 475 l 0 25 M 350 475 l 0 25 M 400 475 l 0 25 M 225 500 l 0 25 M 250 500 l 0 25 M 325 500 l 0 25 M 350 500 l 0 25 M 375 500 l 0 25 M 225 525 l 0 25 M 275 525 l 0 25 M 350 525 l 0 25 M 375 525 l 0 25 M 250 550 l 0 25 M 275 550 l 0 25 M 300 550 l 0 25 M 325 550 l 0 25 M 350 550 l 0 25 M 375 550 l 0 25 M 250 575 l 0 25 M 325 575 l 0 25 M 375 575 l 0 25 M 275 600 l 0 25 M 300 600 l 0 25 M 350 600 l 0 25 M 375 600 l 0 25 M 300 625 l 0 25 M 375 625 l 0 25 M 350 650 l 0 25 M 375 650 l 0 25" stroke-width="3" /></g><g stroke="black" stroke-linecap="round" stroke-width="0.25"><g fill="#EEAAAA"><rect height="25" width="25" x="550" y="400" /><rect height="25" width="25" x="575" y="400" /><rect height="25" width="25" x="525" y="425" /><rect height="25" width="25" x="550" y="425" /><rect height="25" width="25" x="550" y="450" /></g><g fill="#DDBB99"><rect height="25" width="25" x="450" y="525" /><rect height="25" width="25" x="475" y="525" /><rect height="25" width="25" x="475" y="550" /><rect height="25" width="25" x="500" y="550" /><rect height="25" width="25" x="475" y="575" /></g><g fill="#BBDD99"><rect height="25" width="25" x="575" y="550" /><rect height="25" width="25" x="550" y="575" /><rect height="25" width="25" x="575" y="575" /><rect height="25" width="25" x="550" y="600" /><rect height="25" width="25" x="575" y="600" /></g><g fill="#DD99BB"><rect height="25" width="25" x="525" y="600" /><rect height="25" width="25" x="525" y="625" /><rect height="25" width="25" x="550" y="625" /><rect height="25" width="25" x="575" y="625" /><rect height="25" width="25" x="575" y="650" /></g><g fill="#99BBDD"><rect height="25" width="25" x="550" y="475" /><rect height="25" width="25" x="550" y="500" /><rect height="25" width="25" x="500" y="525" /><rect height="25" width="25" x="525" y="525" /><rect height="25" width="25" x="550" y="525" /></g><g fill="#BB99DD"><rect height="25" width="25" x="600" y="375" /><rect height="25" width="25" x="600" y="400" /><rect height="25" width="25" x="575" y="425" /><rect height="25" width="25" x="600" y="425" /><rect height="25" width="25" x="575" y="450" /></g><g fill="#CC88CC"><rect height="25" width="25" x="600" y="450" /><rect height="25" width="25" x="575" y="475" /><rect height="25" width="25" x="600" y="475" /><rect height="25" width="25" x="575" y="500" /><rect height="25" width="25" x="575" y="525" /></g><g fill="#AAEEAA"><rect height="25" width="25" x="575" y="350" /><rect height="25" width="25" x="600" y="350" /><rect height="25" width="25" x="525" y="375" /><rect height="25" width="25" x="550" y="375" /><rect height="25" width="25" x="575" y="375" /></g><g fill="#CCCC88"><rect height="25" width="25" x="525" y="475" /><rect height="25" width="25" x="450" y="500" /><rect height="25" width="25" x="475" y="500" /><rect height="25" width="25" x="500" y="500" /><rect height="25" width="25" x="525" y="500" /></g><g fill="#88CCCC"><rect height="25" width="25" x="500" y="400" /><rect height="25" width="25" x="525" y="400" /><rect height="25" width="25" x="500" y="425" /><rect height="25" width="25" x="500" y="450" /><rect height="25" width="25" x="525" y="450" /></g><g fill="#AAAAEE"><rect height="25" width="25" x="525" y="550" /><rect height="25" width="25" x="550" y="550" /><rect height="25" width="25" x="500" y="575" /><rect height="25" width="25" x="525" y="575" /><rect height="25" width="25" x="500" y="600" /></g><g fill="#99DDBB"><rect height="25" width="25" x="475" y="425" /><rect height="25" width="25" x="475" y="450" /><rect height="25" width="25" x="450" y="475" /><rect height="25" width="25" x="475" y="475" /><rect height="25" width="25" x="500" y="475" /></g><path d="M 575 350 l 25 0 M 600 350 l 25 0 M 525 375 l 25 0 M 550 375 l 25 0 M 600 375 l 25 0 M 500 400 l 25 0 M 525 400 l 25 0 M 550 400 l 25 0 M 575 400 l 25 0 M 475 425 l 25 0 M 525 425 l 25 0 M 575 425 l 25 0 M 525 450 l 25 0 M 600 450 l 25 0 M 450 475 l 25 0 M 500 475 l 25 0 M 525 475 l 25 0 M 550 475 l 25 0 M 575 475 l 25 0 M 450 500 l 25 0 M 475 500 l 25 0 M 500 500 l 25 0 M 600 500 l 25 0 M 450 525 l 25 0 M 475 525 l 25 0 M 500 525 l 25 0 M 525 525 l 25 0 M 450 550 l 25 0 M 500 550 l 25 0 M 525 550 l 25 0 M 550 550 l 25 0 M 575 550 l 25 0 M 500 575 l 25 0 M 550 575 l 25 0 M 475 600 l 25 0 M 525 600 l 25 0 M 500 625 l 25 0 M 550 625 l 25 0 M 575 625 l 25 0 M 525 650 l 25 0 M 550 650 l 25 0 M 575 675 l 25 0 M 575 350 l 0 25 M 625 350 l 0 25 M 525 375 l 0 25 M 600 375 l 0 25 M 625 375 l 0 25 M 500 400 l 0 25 M 550 400 l 0 25 M 600 400 l 0 25 M 625 400 l 0 25 M 475 425 l 0 25 M 500 425 l 0 25 M 525 425 l 0 25 M 575 425 l 0 25 M 625 425 l 0 25 M 475 450 l 0 25 M 500 450 l 0 25 M 550 450 l 0 25 M 575 450 l 0 25 M 600 450 l 0 25 M 625 450 l 0 25 M 450 475 l 0 25 M 525 475 l 0 25 M 550 475 l 0 25 M 575 475 l 0 25 M 625 475 l 0 25 M 450 500 l 0 25 M 550 500 l 0 25 M 575 500 l 0 25 M 600 500 l 0 25 M 450 525 l 0 25 M 500 525 l 0 25 M 575 525 l 0 25 M 600 525 l 0 25 M 475 550 l 0 25 M 525 550 l 0 25 M 575 550 l 0 25 M 600 550 l 0 25 M 475 575 l 0 25 M 500 575 l 0 25 M 550 575 l 0 25 M 600 575 l 0 25 M 500 600 l 0 25 M 525 600 l 0 25 M 550 600 l 0 25 M 600 600 l 0 25 M 525 625 l 0 25 M 600 625 l 0 25 M 575 650 l 0 25 M 600 650 l 0 25" stroke-width="3" /></g><g stroke="black" stroke-linecap="round" stroke-width="0.25"><g fill="#EEAAAA"><rect height="25" width="25" x="75" y="775" /><rect height="25" width="25" x="100" y="775" /><rect height="25" width="25" x="50" y="800" /><rect height="25" width="25" x="75" y="800" /><rect height="25" width="25" x="75" y="825" /></g><g fill="#DDBB99"><rect height="25" width="25" x="50" y="825" /><rect height="25" width="25" x="25" y="850" /><rect height="25" width="25" x="50" y="850" /><rect height="25" width="25" x="75" y="850" /><rect height="25" width="25" x="25" y="875" /></g><g fill="#BBDD99"><rect height="25" width="25" x="50" y="875" /><rect height="25" width="25" x="25" y="900" /><rect height="25" width="25" x="50" y="900" /><rect height="25" width="25" x="25" y="925" /><rect height="25" width="25" x="50" y="925" /></g><g fill="#DD99BB"><rect height="25" width="25" x="75" y="900" /><rect height="25" width="25" x="100" y="900" /><rect height="25" width="25" x="75" y="925" /><rect height="25" width="25" x="50" y="950" /><rect height="25" width="25" x="75" y="950" /></g><g fill="#99BBDD"><rect height="25" width="25" x="75" y="725" /><rect height="25" width="25" x="100" y="725" /><rect height="25" width="25" x="125" y="725" /><rect height="25" width="25" x="125" y="750" /><rect height="25" width="25" x="125" y="775" /></g><g fill="#BB99DD"><rect height="25" width="25" x="125" y="875" /><rect height="25" width="25" x="125" y="900" /><rect height="25" width="25" x="100" y="925" /><rect height="25" width="25" x="125" y="925" /><rect height="25" width="25" x="100" y="950" /></g><g fill="#CC88CC"><rect height="25" width="25" x="25" y="800" /><rect height="25" width="25" x="0" y="825" /><rect height="25" width="25" x="25" y="825" /><rect height="25" width="25" x="0" y="850" /><rect height="25" width="25" x="0" y="875" /></g><g fill="#AAEEAA"><rect height="25" width="25" x="50" y="750" /><rect height="25" width="25" x="75" y="750" /><rect height="25" width="25" x="100" y="750" /><rect height="25" width="25" x="25" y="775" /><rect height="25" width="25" x="50" y="775" /></g><g fill="#CCCC88"><rect height="25" width="25" x="125" y="700" /><rect height="25" width="25" x="150" y="700" /><rect height="25" width="25" x="150" y="725" /><rect height="25" width="25" x="150" y="750" /><rect height="25" width="25" x="150" y="775" /></g><g fill="#88CCCC"><rect height="25" width="25" x="100" y="800" /><rect height="25" width="25" x="125" y="800" /><rect height="25" width="25" x="150" y="800" /><rect height="25" width="25" x="100" y="825" /><rect height="25" width="25" x="150" y="825" /></g><g fill="#AAAAEE"><rect height="25" width="25" x="125" y="825" /><rect height="25" width="25" x="100" y="850" /><rect height="25" width="25" x="125" y="850" /><rect height="25" width="25" x="75" y="875" /><rect height="25" width="25" x="100" y="875" /></g><g fill="#99DDBB"><rect height="25" width="25" x="125" y="950" /><rect height="25" width="25" x="75" y="975" /><rect height="25" width="25" x="100" y="975" /><rect height="25" width="25" x="125" y="975" /><rect height="25" width="25" x="125" y="1000" /></g><path d="M 125 700 l 25 0 M 150 700 l 25 0 M 75 725 l 25 0 M 100 725 l 25 0 M 125 725 l 25 0 M 50 750 l 25 0 M 75 750 l 25 0 M 100 750 l 25 0 M 25 775 l 25 0 M 75 775 l 25 0 M 100 775 l 25 0 M 25 800 l 25 0 M 50 800 l 25 0 M 100 800 l 25 0 M 125 800 l 25 0 M 150 800 l 25 0 M 0 825 l 25 0 M 50 825 l 25 0 M 125 825 l 25 0 M 25 850 l 25 0 M 75 850 l 25 0 M 100 850 l 25 0 M 150 850 l 25 0 M 50 875 l 25 0 M 75 875 l 25 0 M 125 875 l 25 0 M 0 900 l 25 0 M 25 900 l 25 0 M 75 900 l 25 0 M 100 900 l 25 0 M 100 925 l 25 0 M 25 950 l 25 0 M 50 950 l 25 0 M 125 950 l 25 0 M 50 975 l 25 0 M 75 975 l 25 0 M 100 975 l 25 0 M 75 1000 l 25 0 M 100 1000 l 25 0 M 125 1025 l 25 0 M 125 700 l 0 25 M 175 700 l 0 25 M 75 725 l 0 25 M 150 725 l 0 25 M 175 725 l 0 25 M 50 750 l 0 25 M 125 750 l 0 25 M 150 750 l 0 25 M 175 750 l 0 25 M 25 775 l 0 25 M 75 775 l 0 25 M 125 775 l 0 25 M 150 775 l 0 25 M 175 775 l 0 25 M 25 800 l 0 25 M 50 800 l 0 25 M 100 800 l 0 25 M 175 800 l 0 25 M 0 825 l 0 25 M 50 825 l 0 25 M 75 825 l 0 25 M 100 825 l 0 25 M 125 825 l 0 25 M 150 825 l 0 25 M 175 825 l 0 25 M 0 850 l 0 25 M 25 850 l 0 25 M 100 850 l 0 25 M 150 850 l 0 25 M 0 875 l 0 25 M 25 875 l 0 25 M 50 875 l 0 25 M 75 875 l 0 25 M 125 875 l 0 25 M 150 875 l 0 25 M 25 900 l 0 25 M 75 900 l 0 25 M 125 900 l 0 25 M 150 900 l 0 25 M 25 925 l 0 25 M 75 925 l 0 25 M 100 925 l 0 25 M 150 925 l 0 25 M 50 950 l 0 25 M 100 950 l 0 25 M 125 950 l 0 25 M 150 950 l 0 25 M 75 975 l 0 25 M 150 975 l 0 25 M 125 1000 l 0 25 M 150 1000 l 0 25" stroke-width="3" /></g><g stroke="black" stroke-linecap="round" stroke-width="0.25"><g fill="#EEAAAA"><rect height="25" width="25" x="300" y="775" /><rect height="25" width="25" x="325" y="775" /><rect height="25" width="25" x="275" y="800" /><rect height="25" width="25" x="300" y="800" /><rect height="25" width="25" x="300" y="825" /></g><g fill="#DDBB99"><rect height="25" width="25" x="350" y="900" /><rect height="25" width="25" x="300" y="925" /><rect height="25" width="25" x="325" y="925" /><rect height="25" width="25" x="350" y="925" /><rect height="25" width="25" x="325" y="950" /></g><g fill="#BBDD99"><rect height="25" width="25" x="275" y="825" /><rect height="25" width="25" x="250" y="850" /><rect height="25" width="25" x="275" y="850" /><rect height="25" width="25" x="250" y="875" /><rect height="25" width="25" x="275" y="875" /></g><g fill="#DD99BB"><rect height="25" width="25" x="300" y="850" /><rect height="25" width="25" x="325" y="850" /><rect height="25" width="25" x="300" y="875" /><rect height="25" width="25" x="275" y="900" /><rect height="25" width="25" x="300" y="900" /></g><g fill="#99BBDD"><rect height="25" width="25" x="300" y="725" /><rect height="25" width="25" x="325" y="725" /><rect height="25" width="25" x="350" y="725" /><rect height="25" width="25" x="350" y="750" /><rect height="25" width="25" x="350" y="775" /></g><g fill="#BB99DD"><rect height="25" width="25" x="350" y="825" /><rect height="25" width="25" x="350" y="850" /><rect height="25" width="25" x="325" y="875" /><rect height="25" width="25" x="350" y="875" /><rect height="25" width="25" x="325" y="900" /></g><g fill="#CC88CC"><rect height="25" width="25" x="250" y="800" /><rect height="25" width="25" x="225" y="825" /><rect height="25" width="25" x="250" y="825" /><rect height="25" width="25" x="225" y="850" /><rect height="25" width="25" x="225" y="875" /></g><g fill="#AAEEAA"><rect height="25" width="25" x="275" y="750" /><rect height="25" width="25" x="300" y="750" /><rect height="25" width="25" x="325" y="750" /><rect height="25" width="25" x="250" y="775" /><rect height="25" width="25" x="275" y="775" /></g><g fill="#CCCC88"><rect height="25" width="25" x="350" y="700" /><rect height="25" width="25" x="375" y="700" /><rect height="25" width="25" x="375" y="725" /><rect height="25" width="25" x="375" y="750" /><rect height="25" width="25" x="375" y="775" /></g><g fill="#88CCCC"><rect height="25" width="25" x="325" y="800" /><rect height="25" width="25" x="350" y="800" /><rect height="25" width="25" x="375" y="800" /><rect height="25" width="25" x="325" y="825" /><rect height="25" width="25" x="375" y="825" /></g><g fill="#AAAAEE"><rect height="25" width="25" x="250" y="900" /><rect height="25" width="25" x="250" y="925" /><rect height="25" width="25" x="275" y="925" /><rect height="25" width="25" x="275" y="950" /><rect height="25" width="25" x="300" y="950" /></g><g fill="#99DDBB"><rect height="25" width="25" x="350" y="950" /><rect height="25" width="25" x="300" y="975" /><rect height="25" width="25" x="325" y="975" /><rect height="25" width="25" x="350" y="975" /><rect height="25" width="25" x="350" y="1000" /></g><path d="M 350 700 l 25 0 M 375 700 l 25 0 M 300 725 l 25 0 M 325 725 l 25 0 M 350 725 l 25 0 M 275 750 l 25 0 M 300 750 l 25 0 M 325 750 l 25 0 M 250 775 l 25 0 M 300 775 l 25 0 M 325 775 l 25 0 M 250 800 l 25 0 M 275 800 l 25 0 M 325 800 l 25 0 M 350 800 l 25 0 M 375 800 l 25 0 M 225 825 l 25 0 M 275 825 l 25 0 M 350 825 l 25 0 M 250 850 l 25 0 M 300 850 l 25 0 M 325 850 l 25 0 M 375 850 l 25 0 M 325 875 l 25 0 M 225 900 l 25 0 M 250 900 l 25 0 M 275 900 l 25 0 M 350 900 l 25 0 M 275 925 l 25 0 M 300 925 l 25 0 M 325 925 l 25 0 M 250 950 l 25 0 M 300 950 l 25 0 M 350 950 l 25 0 M 275 975 l 25 0 M 300 975 l 25 0 M 325 975 l 25 0 M 300 1000 l 25 0 M 325 1000 l 25 0 M 350 1025 l 25 0 M 350 700 l 0 25 M 400 700 l 0 25 M 300 725 l 0 25 M 375 725 l 0 25 M 400 725 l 0 25 M 275 750 l 0 25 M 350 750 l 0 25 M 375 750 l 0 25 M 400 750 l 0 25 M 250 775 l 0 25 M 300 775 l 0 25 M 350 775 l 0 25 M 375 775 l 0 25 M 400 775 l 0 25 M 250 800 l 0 25 M 275 800 l 0 25 M 325 800 l 0 25 M 400 800 l 0 25 M 225 825 l 0 25 M 275 825 l 0 25 M 300 825 l 0 25 M 325 825 l 0 25 M 350 825 l 0 25 M 375 825 l 0 25 M 400 825 l 0 25 M 225 850 l 0 25 M 250 850 l 0 25 M 300 850 l 0 25 M 350 850 l 0 25 M 375 850 l 0 25 M 225 875 l 0 25 M 250 875 l 0 25 M 300 875 l 0 25 M 325 875 l 0 25 M 375 875 l 0 25 M 250 900 l 0 25 M 275 900 l 0 25 M 325 900 l 0 25 M 350 900 l 0 25 M 375 900 l 0 25 M 250 925 l 0 25 M 300 925 l 0 25 M 375 925 l 0 25 M 275 950 l 0 25 M 325 950 l 0 25 M 350 950 l 0 25 M 375 950 l 0 25 M 300 975 l 0 25 M 375 975 l 0 25 M 350 1000 l 0 25 M 375 1000 l 0 25" stroke-width="3" /></g><g stroke="black" stroke-linecap="round" stroke-width="0.25"><g fill="#EEAAAA"><rect height="25" width="25" x="475" y="800" /><rect height="25" width="25" x="500" y="800" /><rect height="25" width="25" x="450" y="825" /><rect height="25" width="25" x="475" y="825" /><rect height="25" width="25" x="475" y="850" /></g><g fill="#DDBB99"><rect height="25" width="25" x="550" y="875" /><rect height="25" width="25" x="500" y="900" /><rect height="25" width="25" x="525" y="900" /><rect height="25" width="25" x="550" y="900" /><rect height="25" width="25" x="525" y="925" /></g><g fill="#BBDD99"><rect height="25" width="25" x="575" y="800" /><rect height="25" width="25" x="600" y="800" /><rect height="25" width="25" x="575" y="825" /><rect height="25" width="25" x="600" y="825" /><rect height="25" width="25" x="575" y="850" /></g><g fill="#DD99BB"><rect height="25" width="25" x="525" y="775" /><rect height="25" width="25" x="550" y="775" /><rect height="25" width="25" x="525" y="800" /><rect height="25" width="25" x="500" y="825" /><rect height="25" width="25" x="525" y="825" /></g><g fill="#99BBDD"><rect height="25" width="25" x="525" y="725" /><rect height="25" width="25" x="550" y="725" /><rect height="25" width="25" x="575" y="725" /><rect height="25" width="25" x="575" y="750" /><rect height="25" width="25" x="575" y="775" /></g><g fill="#BB99DD"><rect height="25" width="25" x="575" y="875" /><rect height="25" width="25" x="575" y="900" /><rect height="25" width="25" x="550" y="925" /><rect height="25" width="25" x="575" y="925" /><rect height="25" width="25" x="550" y="950" /></g><g fill="#CC88CC"><rect height="25" width="25" x="550" y="800" /><rect height="25" width="25" x="550" y="825" /><rect height="25" width="25" x="525" y="850" /><rect height="25" width="25" x="550" y="850" /><rect height="25" width="25" x="525" y="875" /></g><g fill="#AAEEAA"><rect height="25" width="25" x="500" y="750" /><rect height="25" width="25" x="525" y="750" /><rect height="25" width="25" x="550" y="750" /><rect height="25" width="25" x="475" y="775" /><rect height="25" width="25" x="500" y="775" /></g><g fill="#CCCC88"><rect height="25" width="25" x="575" y="700" /><rect height="25" width="25" x="600" y="700" /><rect height="25" width="25" x="600" y="725" /><rect height="25" width="25" x="600" y="750" /><rect height="25" width="25" x="600" y="775" /></g><g fill="#88CCCC"><rect height="25" width="25" x="450" y="850" /><rect height="25" width="25" x="500" y="850" /><rect height="25" width="25" x="450" y="875" /><rect height="25" width="25" x="475" y="875" /><rect height="25" width="25" x="500" y="875" /></g><g fill="#AAAAEE"><rect height="25" width="25" x="475" y="900" /><rect height="25" width="25" x="475" y="925" /><rect height="25" width="25" x="500" y="925" /><rect height="25" width="25" x="500" y="950" /><rect height="25" width="25" x="525" y="950" /></g><g fill="#99DDBB"><rect height="25" width="25" x="575" y="950" /><rect height="25" width="25" x="525" y="975" /><rect height="25" width="25" x="550" y="975" /><rect height="25" width="25" x="575" y="975" /><rect height="25" width="25" x="575" y="1000" /></g><path d="M 575 700 l 25 0 M 600 700 l 25 0 M 525 725 l 25 0 M 550 725 l 25 0 M 575 725 l 25 0 M 500 750 l 25 0 M 525 750 l 25 0 M 550 750 l 25 0 M 475 775 l 25 0 M 525 775 l 25 0 M 550 775 l 25 0 M 475 800 l 25 0 M 500 800 l 25 0 M 550 800 l 25 0 M 575 800 l 25 0 M 600 800 l 25 0 M 450 825 l 25 0 M 500 825 l 25 0 M 450 850 l 25 0 M 500 850 l 25 0 M 525 850 l 25 0 M 600 850 l 25 0 M 475 875 l 25 0 M 550 875 l 25 0 M 575 875 l 25 0 M 450 900 l 25 0 M 475 900 l 25 0 M 500 900 l 25 0 M 525 900 l 25 0 M 500 925 l 25 0 M 550 925 l 25 0 M 475 950 l 25 0 M 525 950 l 25 0 M 575 950 l 25 0 M 500 975 l 25 0 M 525 975 l 25 0 M 550 975 l 25 0 M 525 1000 l 25 0 M 550 1000 l 25 0 M 575 1025 l 25 0 M 575 700 l 0 25 M 625 700 l 0 25 M 525 725 l 0 25 M 600 725 l 0 25 M 625 725 l 0 25 M 500 750 l 0 25 M 575 750 l 0 25 M 600 750 l 0 25 M 625 750 l 0 25 M 475 775 l 0 25 M 525 775 l 0 25 M 575 775 l 0 25 M 600 775 l 0 25 M 625 775 l 0 25 M 475 800 l 0 25 M 525 800 l 0 25 M 550 800 l 0 25 M 575 800 l 0 25 M 625 800 l 0 25 M 450 825 l 0 25 M 500 825 l 0 25 M 550 825 l 0 25 M 575 825 l 0 25 M 625 825 l 0 25 M 450 850 l 0 25 M 475 850 l 0 25 M 500 850 l 0 25 M 525 850 l 0 25 M 575 850 l 0 25 M 600 850 l 0 25 M 450 875 l 0 25 M 525 875 l 0 25 M 550 875 l 0 25 M 575 875 l 0 25 M 600 875 l 0 25 M 475 900 l 0 25 M 500 900 l 0 25 M 575 900 l 0 25 M 600 900 l 0 25 M 475 925 l 0 25 M 525 925 l 0 25 M 550 925 l 0 25 M 600 925 l 0 25 M 500 950 l 0 25 M 550 950 l 0 25 M 575 950 l 0 25 M 600 950 l 0 25 M 525 975 l 0 25 M 600 975 l 0 25 M 575 1000 l 0 25 M 600 1000 l 0 25" stroke-width="3" /></g></svg>