<?xml version="1.0" encoding="utf-8" ?>
<svg baseProfile="full" height="24435" version="1.1" width="26385" xmlns="http://www.w3.org/2000/svg" xmlns:ev="http://www.w3.org/2001/xml-events" xmlns:xlink="http://www.w3.org/1999/xlink"><defs /><g stroke="black" stroke-linecap="round" stroke-width="0.25"><g fill="#EEAAAA"><rect height="25" width="25" x="80" y="30" /><rect height="25" width="25" x="105" y="30" /><rect height="25" width="25" x="55" y="55" /><rect height="25" width="25" x="80" y="55" /><rect height="25" width="25" x="80" y="80" /></g><g fill="#DDBB99"><rect height="25" width="25" x="80" y="205" /><rect height="25" width="25" x="105" y="205" /><rect height="25" width="25" x="105" y="230" /><rect height="25" width="25" x="130" y="230" /><rect height="25" width="25" x="105" y="255" /></g><g fill="#BBDD99"><rect height="25" width="25" x="30" y="230" /><rect height="25" width="25" x="55" y="230" /><rect height="25" width="25" x="80" y="230" /><rect height="25" width="25" x="55" y="255" /><rect height="25" width="25" x="80" y="255" /></g><g fill="#DD99BB"><rect height="25" width="25" x="130" y="5" /><rect height="25" width="25" x="155" y="5" /><rect height="25" width="25" x="130" y="30" /><rect height="25" width="25" x="105" y="55" /><rect height="25" width="25" x="130" y="55" /></g><g fill="#99BBDD"><rect height="25" width="25" x="80" y="155" /><rect height="25" width="25" x="105" y="155" /><rect height="25" width="25" x="130" y="155" /><rect height="25" width="25" x="130" y="180" /><rect height="25" width="25" x="130" y="205" /></g><g fill="#BB99DD"><rect height="25" width="25" x="155" y="30" /><rect height="25" width="25" x="155" y="55" /><rect height="25" width="25" x="130" y="80" /><rect height="25" width="25" x="155" y="80" /><rect height="25" width="25" x="130" y="105" /></g><g fill="#CC88CC"><rect height="25" width="25" x="30" y="80" /><rect height="25" width="25" x="30" y="105" /><rect height="25" width="25" x="5" y="130" /><rect height="25" width="25" x="30" y="130" /><rect height="25" width="25" x="5" y="155" /></g><g fill="#AAEEAA"><rect height="25" width="25" x="55" y="180" /><rect height="25" width="25" x="80" y="180" /><rect height="25" width="25" x="105" y="180" /><rect height="25" width="25" x="30" y="205" /><rect height="25" width="25" x="55" y="205" /></g><g fill="#CCCC88"><rect height="25" width="25" x="155" y="105" /><rect height="25" width="25" x="80" y="130" /><rect height="25" width="25" x="105" y="130" /><rect height="25" width="25" x="130" y="130" /><rect height="25" width="25" x="155" y="130" /></g><g fill="#88CCCC"><rect height="25" width="25" x="55" y="80" /><rect height="25" width="25" x="105" y="80" /><rect height="25" width="25" x="55" y="105" /><rect height="25" width="25" x="80" y="105" /><rect height="25" width="25" x="105" y="105" /></g><g fill="#AAAAEE"><rect height="25" width="25" x="55" y="130" /><rect height="25" width="25" x="30" y="155" /><rect height="25" width="25" x="55" y="155" /><rect height="25" width="25" x="5" y="180" /><rect height="25" width="25" x="30" y="180" /></g><g fill="#99DDBB"><rect height="25" width="25" x="130" y="255" /><rect height="25" width="25" x="80" y="280" /><rect height="25" width="25" x="105" y="280" /><rect height="25" width="25" x="130" y="280" /><rect height="25" width="25" x="130" y="305" /></g><path d="M 130 5 l 25 0 M 155 5 l 25 0 M 80 30 l 25 0 M 105 30 l 25 0 M 155 30 l 25 0 M 55 55 l 25 0 M 105 55 l 25 0 M 30 80 l 25 0 M 55 80 l 25 0 M 105 80 l 25 0 M 130 80 l 25 0 M 80 105 l 25 0 M 155 105 l 25 0 M 5 130 l 25 0 M 55 130 l 25 0 M 80 130 l 25 0 M 105 130 l 25 0 M 130 130 l 25 0 M 30 155 l 25 0 M 80 155 l 25 0 M 105 155 l 25 0 M 130 155 l 25 0 M 155 155 l 25 0 M 5 180 l 25 0 M 55 180 l 25 0 M 80 180 l 25 0 M 105 180 l 25 0 M 5 205 l 25 0 M 30 205 l 25 0 M 80 205 l 25 0 M 105 205 l 25 0 M 30 230 l 25 0 M 55 230 l 25 0 M 80 230 l 25 0 M 130 230 l 25 0 M 30 255 l 25 0 M 130 255 l 25 0 M 55 280 l 25 0 M 80 280 l 25 0 M 105 280 l 25 0 M 80 305 l 25 0 M 105 305 l 25 0 M 130 330 l 25 0 M 130 5 l 0 25 M 180 5 l 0 25 M 80 30 l 0 25 M 130 30 l 0 25 M 155 30 l 0 25 M 180 30 l 0 25 M 55 55 l 0 25 M 105 55 l 0 25 M 155 55 l 0 25 M 180 55 l 0 25 M 30 80 l 0 25 M 55 80 l 0 25 M 80 80 l 0 25 M 105 80 l 0 25 M 130 80 l 0 25 M 180 80 l 0 25 M 30 105 l 0 25 M 55 105 l 0 25 M 130 105 l 0 25 M 155 105 l 0 25 M 180 105 l 0 25 M 5 130 l 0 25 M 55 130 l 0 25 M 80 130 l 0 25 M 180 130 l 0 25 M 5 155 l 0 25 M 30 155 l 0 25 M 80 155 l 0 25 M 155 155 l 0 25 M 5 180 l 0 25 M 55 180 l 0 25 M 130 180 l 0 25 M 155 180 l 0 25 M 30 205 l 0 25 M 80 205 l 0 25 M 130 205 l 0 25 M 155 205 l 0 25 M 30 230 l 0 25 M 105 230 l 0 25 M 155 230 l 0 25 M 55 255 l 0 25 M 105 255 l 0 25 M 130 255 l 0 25 M 155 255 l 0 25 M 80 280 l 0 25 M 155 280 l 0 25 M 130 305 l 0 25 M 155 305 l 0 25" stroke-width="3" /></g><g stroke="black" stroke-linecap="round" stroke-width="0.25"><g fill="#EEAAAA"><rect height="25" width="25" x="4480" y="30" /><rect height="25" width="25" x="4505" y="30" /><rect height="25" width="25" x="4455" y="55" /><rect height="25" width="25" x="4480" y="55" /><rect height="25" width="25" x="4480" y="80" /></g><g fill="#DDBB99"><rect height="25" width="25" x="4480" y="205" /><rect height="25" width="25" x="4505" y="205" /><rect height="25" width="25" x="4505" y="230" /><rect height="25" width="25" x="4530" y="230" /><rect height="25" width="25" x="4505" y="255" /></g><g fill="#BBDD99"><rect height="25" width="25" x="4430" y="230" /><rect height="25" width="25" x="4455" y="230" /><rect height="25" width="25" x="4480" y="230" /><rect height="25" width="25" x="4455" y="255" /><rect height="25" width="25" x="4480" y="255" /></g><g fill="#DD99BB"><rect height="25" width="25" x="4530" y="5" /><rect height="25" width="25" x="4555" y="5" /><rect height="25" width="25" x="4530" y="30" /><rect height="25" width="25" x="4505" y="55" /><rect height="25" width="25" x="4530" y="55" /></g><g fill="#99BBDD"><rect height="25" width="25" x="4480" y="155" /><rect height="25" width="25" x="4505" y="155" /><rect height="25" width="25" x="4530" y="155" /><rect height="25" width="25" x="4530" y="180" /><rect height="25" width="25" x="4530" y="205" /></g><g fill="#BB99DD"><rect height="25" width="25" x="4430" y="80" /><rect height="25" width="25" x="4430" y="105" /><rect height="25" width="25" x="4405" y="130" /><rect height="25" width="25" x="4430" y="130" /><rect height="25" width="25" x="4405" y="155" /></g><g fill="#CC88CC"><rect height="25" width="25" x="4555" y="30" /><rect height="25" width="25" x="4555" y="55" /><rect height="25" width="25" x="4530" y="80" /><rect height="25" width="25" x="4555" y="80" /><rect height="25" width="25" x="4530" y="105" /></g><g fill="#AAEEAA"><rect height="25" width="25" x="4455" y="180" /><rect height="25" width="25" x="4480" y="180" /><rect height="25" width="25" x="4505" y="180" /><rect height="25" width="25" x="4430" y="205" /><rect height="25" width="25" x="4455" y="205" /></g><g fill="#CCCC88"><rect height="25" width="25" x="4555" y="105" /><rect height="25" width="25" x="4480" y="130" /><rect height="25" width="25" x="4505" y="130" /><rect height="25" width="25" x="4530" y="130" /><rect height="25" width="25" x="4555" y="130" /></g><g fill="#88CCCC"><rect height="25" width="25" x="4455" y="80" /><rect height="25" width="25" x="4505" y="80" /><rect height="25" width="25" x="4455" y="105" /><rect height="25" width="25" x="4480" y="105" /><rect height="25" width="25" x="4505" y="105" /></g><g fill="#AAAAEE"><rect height="25" width="25" x="4455" y="130" /><rect height="25" width="25" x="4430" y="155" /><rect height="25" width="25" x="4455" y="155" /><rect height="25" width="25" x="4405" y="180" /><rect height="25" width="25" x="4430" y="180" /></g><g fill="#99DDBB"><rect height="25" width="25" x="4530" y="255" /><rect height="25" width="25" x="4480" y="280" /><rect height="25" width="25" x="4505" y="280" /><rect height="25" width="25" x="4530" y="280" /><rect height="25" width="25" x="4530" y="305" /></g><path d="M 4530 5 l 25 0 M 4555 5 l 25 0 M 4480 30 l 25 0 M 4505 30 l 25 0 M 4555 30 l 25 0 M 4455 55 l 25 0 M 4505 55 l 25 0 M 4430 80 l 25 0 M 4455 80 l 25 0 M 4505 80 l 25 0 M 4530 80 l 25 0 M 4480 105 l 25 0 M 4555 105 l 25 0 M 4405 130 l 25 0 M 4455 130 l 25 0 M 4480 130 l 25 0 M 4505 130 l 25 0 M 4530 130 l 25 0 M 4430 155 l 25 0 M 4480 155 l 25 0 M 4505 155 l 25 0 M 4530 155 l 25 0 M 4555 155 l 25 0 M 4405 180 l 25 0 M 4455 180 l 25 0 M 4480 180 l 25 0 M 4505 180 l 25 0 M 4405 205 l 25 0 M 4430 205 l 25 0 M 4480 205 l 25 0 M 4505 205 l 25 0 M 4430 230 l 25 0 M 4455 230 l 25 0 M 4480 230 l 25 0 M 4530 230 l 25 0 M 4430 255 l 25 0 M 4530 255 l 25 0 M 4455 280 l 25 0 M 4480 280 l 25 0 M 4505 280 l 25 0 M 4480 305 l 25 0 M 4505 305 l 25 0 M 4530 330 l 25 0 M 4530 5 l 0 25 M 4580 5 l 0 25 M 4480 30 l 0 25 M 4530 30 l 0 25 M 4555 30 l 0 25 M 4580 30 l 0 25 M 4455 55 l 0 25 M 4505 55 l 0 25 M 4555 55 l 0 25 M 4580 55 l 0 25 M 4430 80 l 0 25 M 4455 80 l 0 25 M 4480 80 l 0 25 M 4505 80 l 0 25 M 4530 80 l 0 25 M 4580 80 l 0 25 M 4430 105 l 0 25 M 4455 105 l 0 25 M 4530 105 l 0 25 M 4555 105 l 0 25 M 4580 105 l 0 25 M 4405 130 l 0 25 M 4455 130 l 0 25 M 4480 130 l 0 25 M 4580 130 l 0 25 M 4405 155 l 0 25 M 4430 155 l 0 25 M 4480 155 l 0 25 M 4555 155 l 0 25 M 4405 180 l 0 25 M 4455 180 l 0 25 M 4530 180 l 0 25 M 4555 180 l 0 25 M 4430 205 l 0 25 M 4480 205 l 0 25 M 4530 205 l 0 25 M 4555 205 l 0 25 M 4430 230 l 0 25 M 4505 230 l 0 25 M 4555 230 l 0 25 M 4455 255 l 0 25 M 4505 255 l 0 25 M 4530 255 l 0 25 M 4555 255 l 0 25 M 4480 280 l 0 25 M 4555 280 l 0 25 M 4530 305 l 0 25 M 4555 305 l 0 25" stroke-width="3" /></g><g stroke="black" stroke-linecap="round" stroke-width="0.25"><g fill="#EEAAAA"><rect height="25" width="25" x="8880" y="30" /><rect height="25" width="25" x="8905" y="30" /><rect height="25" width="25" x="8855" y="55" /><rect height="25" width="25" x="8880" y="55" /><rect height="25" width="25" x="8880" y="80" /></g><g fill="#DDBB99"><rect height="25" width="25" x="8955" y="105" /><rect height="25" width="25" x="8905" y="130" /><rect height="25" width="25" x="8930" y="130" /><rect height="25" width="25" x="8955" y="130" /><rect height="25" width="25" x="8930" y="155" /></g><g fill="#BBDD99"><rect height="25" width="25" x="8855" y="180" /><rect height="25" width="25" x="8880" y="180" /><rect height="25" width="25" x="8855" y="205" /><rect height="25" width="25" x="8880" y="205" /><rect height="25" width="25" x="8905" y="205" /></g><g fill="#DD99BB"><rect height="25" width="25" x="8930" y="5" /><rect height="25" width="25" x="8955" y="5" /><rect height="25" width="25" x="8930" y="30" /><rect height="25" width="25" x="8905" y="55" /><rect height="25" width="25" x="8930" y="55" /></g><g fill="#99BBDD"><rect height="25" width="25" x="8930" y="180" /><rect height="25" width="25" x="8930" y="205" /><rect height="25" width="25" x="8880" y="230" /><rect height="25" width="25" x="8905" y="230" /><rect height="25" width="25" x="8930" y="230" /></g><g fill="#BB99DD"><rect height="25" width="25" x="8830" y="230" /><rect height="25" width="25" x="8855" y="230" /><rect height="25" width="25" x="8855" y="255" /><rect height="25" width="25" x="8880" y="255" /><rect height="25" width="25" x="8905" y="255" /></g><g fill="#CC88CC"><rect height="25" width="25" x="8955" y="30" /><rect height="25" width="25" x="8955" y="55" /><rect height="25" width="25" x="8930" y="80" /><rect height="25" width="25" x="8955" y="80" /><rect height="25" width="25" x="8930" y="105" /></g><g fill="#AAEEAA"><rect height="25" width="25" x="8805" y="130" /><rect height="25" width="25" x="8805" y="155" /><rect height="25" width="25" x="8805" y="180" /><rect height="25" width="25" x="8830" y="180" /><rect height="25" width="25" x="8830" y="205" /></g><g fill="#CCCC88"><rect height="25" width="25" x="8830" y="80" /><rect height="25" width="25" x="8830" y="105" /><rect height="25" width="25" x="8830" y="130" /><rect height="25" width="25" x="8830" y="155" /><rect height="25" width="25" x="8855" y="155" /></g><g fill="#88CCCC"><rect height="25" width="25" x="8855" y="80" /><rect height="25" width="25" x="8905" y="80" /><rect height="25" width="25" x="8855" y="105" /><rect height="25" width="25" x="8880" y="105" /><rect height="25" width="25" x="8905" y="105" /></g><g fill="#AAAAEE"><rect height="25" width="25" x="8855" y="130" /><rect height="25" width="25" x="8880" y="130" /><rect height="25" width="25" x="8880" y="155" /><rect height="25" width="25" x="8905" y="155" /><rect height="25" width="25" x="8905" y="180" /></g><g fill="#99DDBB"><rect height="25" width="25" x="8930" y="255" /><rect height="25" width="25" x="8880" y="280" /><rect height="25" width="25" x="8905" y="280" /><rect height="25" width="25" x="8930" y="280" /><rect height="25" width="25" x="8930" y="305" /></g><path d="M 8930 5 l 25 0 M 8955 5 l 25 0 M 8880 30 l 25 0 M 8905 30 l 25 0 M 8955 30 l 25 0 M 8855 55 l 25 0 M 8905 55 l 25 0 M 8830 80 l 25 0 M 8855 80 l 25 0 M 8905 80 l 25 0 M 8930 80 l 25 0 M 8880 105 l 25 0 M 8955 105 l 25 0 M 8805 130 l 25 0 M 8855 130 l 25 0 M 8880 130 l 25 0 M 8905 130 l 25 0 M 8930 130 l 25 0 M 8855 155 l 25 0 M 8905 155 l 25 0 M 8955 155 l 25 0 M 8830 180 l 25 0 M 8855 180 l 25 0 M 8880 180 l 25 0 M 8930 180 l 25 0 M 8805 205 l 25 0 M 8905 205 l 25 0 M 8830 230 l 25 0 M 8855 230 l 25 0 M 8880 230 l 25 0 M 8905 230 l 25 0 M 8830 255 l 25 0 M 8880 255 l 25 0 M 8905 255 l 25 0 M 8930 255 l 25 0 M 8855 280 l 25 0 M 8880 280 l 25 0 M 8905 280 l 25 0 M 8880 305 l 25 0 M 8905 305 l 25 0 M 8930 330 l 25 0 M 8930 5 l 0 25 M 8980 5 l 0 25 M 8880 30 l 0 25 M 8930 30 l 0 25 M 8955 30 l 0 25 M 8980 30 l 0 25 M 8855 55 l 0 25 M 8905 55 l 0 25 M 8955 55 l 0 25 M 8980 55 l 0 25 M 8830 80 l 0 25 M 8855 80 l 0 25 M 8880 80 l 0 25 M 8905 80 l 0 25 M 8930 80 l 0 25 M 8980 80 l 0 25 M 8830 105 l 0 25 M 8855 105 l 0 25 M 8930 105 l 0 25 M 8955 105 l 0 25 M 8980 105 l 0 25 M 8805 130 l 0 25 M 8830 130 l 0 25 M 8855 130 l 0 25 M 8905 130 l 0 25 M 8980 130 l 0 25 M 8805 155 l 0 25 M 8830 155 l 0 25 M 8880 155 l 0 25 M 8930 155 l 0 25 M 8955 155 l 0 25 M 8805 180 l 0 25 M 8855 180 l 0 25 M 8905 180 l 0 25 M 8930 180 l 0 25 M 8955 180 l 0 25 M 8830 205 l 0 25 M 8855 205 l 0 25 M 8930 205 l 0 25 M 8955 205 l 0 25 M 8830 230 l 0 25 M 8880 230 l 0 25 M 8955 230 l 0 25 M 8855 255 l 0 25 M 8930 255 l 0 25 M 8955 255 l 0 25 M 8880 280 l 0 25 M 8955 280 l 0 25 M 8930 305 l 0 25 M 8955 305 l 0 25" stroke-width="3" /></g><g stroke="black" stroke-linecap="round" stroke-width="0.25"><g fill="#EEAAAA"><rect height="25" width="25" x="13280" y="30" /><rect height="25" width="25" x="13305" y="30" /><rect height="25" width="25" x="13255" y="55" /><rect height="25" width="25" x="13280" y="55" /><rect height="25" width="25" x="13280" y="80" /></g><g fill="#DDBB99"><rect height="25" width="25" x="13355" y="105" /><rect height="25" width="25" x="13305" y="130" /><rect height="25" width="25" x="13330" y="130" /><rect height="25" width="25" x="13355" y="130" /><rect height="25" width="25" x="13330" y="155" /></g><g fill="#BBDD99"><rect height="25" width="25" x="13255" y="180" /><rect height="25" width="25" x="13280" y="180" /><rect height="25" width="25" x="13255" y="205" /><rect height="25" width="25" x="13280" y="205" /><rect height="25" width="25" x="13305" y="205" /></g><g fill="#DD99BB"><rect height="25" width="25" x="13330" y="5" /><rect height="25" width="25" x="13355" y="5" /><rect height="25" width="25" x="13330" y="30" /><rect height="25" width="25" x="13305" y="55" /><rect height="25" width="25" x="13330" y="55" /></g><g fill="#99BBDD"><rect height="25" width="25" x="13330" y="180" /><rect height="25" width="25" x="13330" y="205" /><rect height="25" width="25" x="13280" y="230" /><rect height="25" width="25" x="13305" y="230" /><rect height="25" width="25" x="13330" y="230" /></g><g fill="#BB99DD"><rect height="25" width="25" x="13355" y="30" /><rect height="25" width="25" x="13355" y="55" /><rect height="25" width="25" x="13330" y="80" /><rect height="25" width="25" x="13355" y="80" /><rect height="25" width="25" x="13330" y="105" /></g><g fill="#CC88CC"><rect height="25" width="25" x="13230" y="230" /><rect height="25" width="25" x="13255" y="230" /><rect height="25" width="25" x="13255" y="255" /><rect height="25" width="25" x="13280" y="255" /><rect height="25" width="25" x="13305" y="255" /></g><g fill="#AAEEAA"><rect height="25" width="25" x="13205" y="130" /><rect height="25" width="25" x="13205" y="155" /><rect height="25" width="25" x="13205" y="180" /><rect height="25" width="25" x="13230" y="180" /><rect height="25" width="25" x="13230" y="205" /></g><g fill="#CCCC88"><rect height="25" width="25" x="13230" y="80" /><rect height="25" width="25" x="13230" y="105" /><rect height="25" width="25" x="13230" y="130" /><rect height="25" width="25" x="13230" y="155" /><rect height="25" width="25" x="13255" y="155" /></g><g fill="#88CCCC"><rect height="25" width="25" x="13255" y="80" /><rect height="25" width="25" x="13305" y="80" /><rect height="25" width="25" x="13255" y="105" /><rect height="25" width="25" x="13280" y="105" /><rect height="25" width="25" x="13305" y="105" /></g><g fill="#AAAAEE"><rect height="25" width="25" x="13255" y="130" /><rect height="25" width="25" x="13280" y="130" /><rect height="25" width="25" x="13280" y="155" /><rect height="25" width="25" x="13305" y="155" /><rect height="25" width="25" x="13305" y="180" /></g><g fill="#99DDBB"><rect height="25" width="25" x="13330" y="255" /><rect height="25" width="25" x="13280" y="280" /><rect height="25" width="25" x="13305" y="280" /><rect height="25" width="25" x="13330" y="280" /><rect height="25" width="25" x="13330" y="305" /></g><path d="M 13330 5 l 25 0 M 13355 5 l 25 0 M 13280 30 l 25 0 M 13305 30 l 25 0 M 13355 30 l 25 0 M 13255 55 l 25 0 M 13305 55 l 25 0 M 13230 80 l 25 0 M 13255 80 l 25 0 M 13305 80 l 25 0 M 13330 80 l 25 0 M 13280 105 l 25 0 M 13355 105 l 25 0 M 13205 130 l 25 0 M 13255 130 l 25 0 M 13280 130 l 25 0 M 13305 130 l 25 0 M 13330 130 l 25 0 M 13255 155 l 25 0 M 13305 155 l 25 0 M 13355 155 l 25 0 M 13230 180 l 25 0 M 13255 180 l 25 0 M 13280 180 l 25 0 M 13330 180 l 25 0 M 13205 205 l 25 0 M 13305 205 l 25 0 M 13230 230 l 25 0 M 13255 230 l 25 0 M 13280 230 l 25 0 M 13305 230 l 25 0 M 13230 255 l 25 0 M 13280 255 l 25 0 M 13305 255 l 25 0 M 13330 255 l 25 0 M 13255 280 l 25 0 M 13280 280 l 25 0 M 13305 280 l 25 0 M 13280 305 l 25 0 M 13305 305 l 25 0 M 13330 330 l 25 0 M 13330 5 l 0 25 M 13380 5 l 0 25 M 13280 30 l 0 25 M 13330 30 l 0 25 M 13355 30 l 0 25 M 13380 30 l 0 25 M 13255 55 l 0 25 M 13305 55 l 0 25 M 13355 55 l 0 25 M 13380 55 l 0 25 M 13230 80 l 0 25 M 13255 80 l 0 25 M 13280 80 l 0 25 M 13305 80 l 0 25 M 13330 80 l 0 25 M 13380 80 l 0 25 M 13230 105 l 0 25 M 13255 105 l 0 25 M 13330 105 l 0 25 M 13355 105 l 0 25 M 13380 105 l 0 25 M 13205 130 l 0 25 M 13230 130 l 0 25 M 13255 130 l 0 25 M 13305 130 l 0 25 M 13380 130 l 0 25 M 13205 155 l 0 25 M 13230 155 l 0 25 M 13280 155 l 0 25 M 13330 155 l 0 25 M 13355 155 l 0 25 M 13205 180 l 0 25 M 13255 180 l 0 25 M 13305 180 l 0 25 M 13330 180 l 0 25 M 13355 180 l 0 25 M 13230 205 l 0 25 M 13255 205 l 0 25 M 13330 205 l 0 25 M 13355 205 l 0 25 M 13230 230 l 0 25 M 13280 230 l 0 25 M 13355 230 l 0 25 M 13255 255 l 0 25 M 13330 255 l 0 25 M 13355 255 l 0 25 M 13280 280 l 0 25 M 13355 280 l 0 25 M 13330 305 l 0 25 M 13355 305 l 0 25" stroke-width="3" /></g><g stroke="black" stroke-linecap="round" stroke-width="0.25"><g fill="#EEAAAA"><rect height="25" width="25" x="17655" y="55" /><rect height="25" width="25" x="17680" y="55" /><rect height="25" width="25" x="17630" y="80" /><rect height="25" width="25" x="17655" y="80" /><rect height="25" width="25" x="17655" y="105" /></g><g fill="#DDBB99"><rect height="25" width="25" x="17630" y="105" /><rect height="25" width="25" x="17605" y="130" /><rect height="25" width="25" x="17630" y="130" /><rect height="25" width="25" x="17655" y="130" /><rect height="25" width="25" x="17605" y="155" /></g><g fill="#BBDD99"><rect height="25" width="25" x="17655" y="180" /><rect height="25" width="25" x="17630" y="205" /><rect height="25" width="25" x="17655" y="205" /><rect height="25" width="25" x="17630" y="230" /><rect height="25" width="25" x="17655" y="230" /></g><g fill="#DD99BB"><rect height="25" width="25" x="17680" y="205" /><rect height="25" width="25" x="17705" y="205" /><rect height="25" width="25" x="17680" y="230" /><rect height="25" width="25" x="17655" y="255" /><rect height="25" width="25" x="17680" y="255" /></g><g fill="#99BBDD"><rect height="25" width="25" x="17680" y="30" /><rect height="25" width="25" x="17705" y="30" /><rect height="25" width="25" x="17730" y="30" /><rect height="25" width="25" x="17730" y="55" /><rect height="25" width="25" x="17730" y="80" /></g><g fill="#BB99DD"><rect height="25" width="25" x="17705" y="55" /><rect height="25" width="25" x="17680" y="80" /><rect height="25" width="25" x="17705" y="80" /><rect height="25" width="25" x="17680" y="105" /><rect height="25" width="25" x="17680" y="130" /></g><g fill="#CC88CC"><rect height="25" width="25" x="17730" y="180" /><rect height="25" width="25" x="17730" y="205" /><rect height="25" width="25" x="17705" y="230" /><rect height="25" width="25" x="17730" y="230" /><rect height="25" width="25" x="17705" y="255" /></g><g fill="#AAEEAA"><rect height="25" width="25" x="17630" y="155" /><rect height="25" width="25" x="17655" y="155" /><rect height="25" width="25" x="17680" y="155" /><rect height="25" width="25" x="17605" y="180" /><rect height="25" width="25" x="17630" y="180" /></g><g fill="#CCCC88"><rect height="25" width="25" x="17730" y="5" /><rect height="25" width="25" x="17755" y="5" /><rect height="25" width="25" x="17755" y="30" /><rect height="25" width="25" x="17755" y="55" /><rect height="25" width="25" x="17755" y="80" /></g><g fill="#88CCCC"><rect height="25" width="25" x="17705" y="105" /><rect height="25" width="25" x="17730" y="105" /><rect height="25" width="25" x="17755" y="105" /><rect height="25" width="25" x="17705" y="130" /><rect height="25" width="25" x="17755" y="130" /></g><g fill="#AAAAEE"><rect height="25" width="25" x="17730" y="130" /><rect height="25" width="25" x="17705" y="155" /><rect height="25" width="25" x="17730" y="155" /><rect height="25" width="25" x="17680" y="180" /><rect height="25" width="25" x="17705" y="180" /></g><g fill="#99DDBB"><rect height="25" width="25" x="17730" y="255" /><rect height="25" width="25" x="17680" y="280" /><rect height="25" width="25" x="17705" y="280" /><rect height="25" width="25" x="17730" y="280" /><rect height="25" width="25" x="17730" y="305" /></g><path d="M 17730 5 l 25 0 M 17755 5 l 25 0 M 17680 30 l 25 0 M 17705 30 l 25 0 M 17730 30 l 25 0 M 17655 55 l 25 0 M 17680 55 l 25 0 M 17705 55 l 25 0 M 17630 80 l 25 0 M 17680 80 l 25 0 M 17630 105 l 25 0 M 17705 105 l 25 0 M 17730 105 l 25 0 M 17755 105 l 25 0 M 17605 130 l 25 0 M 17655 130 l 25 0 M 17730 130 l 25 0 M 17630 155 l 25 0 M 17655 155 l 25 0 M 17680 155 l 25 0 M 17705 155 l 25 0 M 17755 155 l 25 0 M 17605 180 l 25 0 M 17655 180 l 25 0 M 17680 180 l 25 0 M 17730 180 l 25 0 M 17605 205 l 25 0 M 17630 205 l 25 0 M 17680 205 l 25 0 M 17705 205 l 25 0 M 17705 230 l 25 0 M 17630 255 l 25 0 M 17655 255 l 25 0 M 17730 255 l 25 0 M 17655 280 l 25 0 M 17680 280 l 25 0 M 17705 280 l 25 0 M 17680 305 l 25 0 M 17705 305 l 25 0 M 17730 330 l 25 0 M 17730 5 l 0 25 M 17780 5 l 0 25 M 17680 30 l 0 25 M 17755 30 l 0 25 M 17780 30 l 0 25 M 17655 55 l 0 25 M 17705 55 l 0 25 M 17730 55 l 0 25 M 17755 55 l 0 25 M 17780 55 l 0 25 M 17630 80 l 0 25 M 17680 80 l 0 25 M 17730 80 l 0 25 M 17755 80 l 0 25 M 17780 80 l 0 25 M 17630 105 l 0 25 M 17655 105 l 0 25 M 17680 105 l 0 25 M 17705 105 l 0 25 M 17780 105 l 0 25 M 17605 130 l 0 25 M 17680 130 l 0 25 M 17705 130 l 0 25 M 17730 130 l 0 25 M 17755 130 l 0 25 M 17780 130 l 0 25 M 17605 155 l 0 25 M 17630 155 l 0 25 M 17705 155 l 0 25 M 17755 155 l 0 25 M 17605 180 l 0 25 M 17655 180 l 0 25 M 17680 180 l 0 25 M 17730 180 l 0 25 M 17755 180 l 0 25 M 17630 205 l 0 25 M 17680 205 l 0 25 M 17730 205 l 0 25 M 17755 205 l 0 25 M 17630 230 l 0 25 M 17680 230 l 0 25 M 17705 230 l 0 25 M 17755 230 l 0 25 M 17655 255 l 0 25 M 17705 255 l 0 25 M 17730 255 l 0 25 M 17755 255 l 0 25 M 17680 280 l 0 25 M 17755 280 l 0 25 M 17730 305 l 0 25 M 17755 305 l 0 25" stroke-width="3" /></g><g stroke="black" stroke-linecap="round" stroke-width="0.25"><g fill="#EEAAAA"><rect height="25" width="25" x="22055" y="55" /><rect height="25" width="25" x="22080" y="55" /><rect height="25" width="25" x="22030" y="80" /><rect height="25" width="25" x="22055" y="80" /><rect height="25" width="25" x="22055" y="105" /></g><g fill="#DDBB99"><rect height="25" width="25" x="22030" y="105" /><rect height="25" width="25" x="22005" y="130" /><rect height="25" width="25" x="22030" y="130" /><rect height="25" width="25" x="22055" y="130" /><rect height="25" width="25" x="22005" y="155" /></g><g fill="#BBDD99"><rect height="25" width="25" x="22055" y="180" /><rect height="25" width="25" x="22030" y="205" /><rect height="25" width="25" x="22055" y="205" /><rect height="25" width="25" x="22030" y="230" /><rect height="25" width="25" x="22055" y="230" /></g><g fill="#DD99BB"><rect height="25" width="25" x="22080" y="205" /><rect height="25" width="25" x="22105" y="205" /><rect height="25" width="25" x="22080" y="230" /><rect height="25" width="25" x="22055" y="255" /><rect height="25" width="25" x="22080" y="255" /></g><g fill="#99BBDD"><rect height="25" width="25" x="22080" y="30" /><rect height="25" width="25" x="22105" y="30" /><rect height="25" width="25" x="22130" y="30" /><rect height="25" width="25" x="22130" y="55" /><rect height="25" width="25" x="22130" y="80" /></g><g fill="#BB99DD"><rect height="25" width="25" x="22130" y="180" /><rect height="25" width="25" x="22130" y="205" /><rect height="25" width="25" x="22105" y="230" /><rect height="25" width="25" x="22130" y="230" /><rect height="25" width="25" x="22105" y="255" /></g><g fill="#CC88CC"><rect height="25" width="25" x="22105" y="55" /><rect height="25" width="25" x="22080" y="80" /><rect height="25" width="25" x="22105" y="80" /><rect height="25" width="25" x="22080" y="105" /><rect height="25" width="25" x="22080" y="130" /></g><g fill="#AAEEAA"><rect height="25" width="25" x="22030" y="155" /><rect height="25" width="25" x="22055" y="155" /><rect height="25" width="25" x="22080" y="155" /><rect height="25" width="25" x="22005" y="180" /><rect height="25" width="25" x="22030" y="180" /></g><g fill="#CCCC88"><rect height="25" width="25" x="22130" y="5" /><rect height="25" width="25" x="22155" y="5" /><rect height="25" width="25" x="22155" y="30" /><rect height="25" width="25" x="22155" y="55" /><rect height="25" width="25" x="22155" y="80" /></g><g fill="#88CCCC"><rect height="25" width="25" x="22105" y="105" /><rect height="25" width="25" x="22130" y="105" /><rect height="25" width="25" x="22155" y="105" /><rect height="25" width="25" x="22105" y="130" /><rect height="25" width="25" x="22155" y="130" /></g><g fill="#AAAAEE"><rect height="25" width="25" x="22130" y="130" /><rect height="25" width="25" x="22105" y="155" /><rect height="25" width="25" x="22130" y="155" /><rect height="25" width="25" x="22080" y="180" /><rect height="25" width="25" x="22105" y="180" /></g><g fill="#99DDBB"><rect height="25" width="25" x="22130" y="255" /><rect height="25" width="25" x="22080" y="280" /><rect height="25" width="25" x="22105" y="280" /><rect height="25" width="25" x="22130" y="280" /><rect height="25" width="25" x="22130" y="305" /></g><path d="M 22130 5 l 25 0 M 22155 5 l 25 0 M 22080 30 l 25 0 M 22105 30 l 25 0 M 22130 30 l 25 0 M 22055 55 l 25 0 M 22080 55 l 25 0 M 22105 55 l 25 0 M 22030 80 l 25 0 M 22080 80 l 25 0 M 22030 105 l 25 0 M 22105 105 l 25 0 M 22130 105 l 25 0 M 22155 105 l 25 0 M 22005 130 l 25 0 M 22055 130 l 25 0 M 22130 130 l 25 0 M 22030 155 l 25 0 M 22055 155 l 25 0 M 22080 155 l 25 0 M 22105 155 l 25 0 M 22155 155 l 25 0 M 22005 180 l 25 0 M 22055 180 l 25 0 M 22080 180 l 25 0 M 22130 180 l 25 0 M 22005 205 l 25 0 M 22030 205 l 25 0 M 22080 205 l 25 0 M 22105 205 l 25 0 M 22105 230 l 25 0 M 22030 255 l 25 0 M 22055 255 l 25 0 M 22130 255 l 25 0 M 22055 280 l 25 0 M 22080 280 l 25 0 M 22105 280 l 25 0 M 22080 305 l 25 0 M 22105 305 l 25 0 M 22130 330 l 25 0 M 22130 5 l 0 25 M 22180 5 l 0 25 M 22080 30 l 0 25 M 22155 30 l 0 25 M 22180 30 l 0 25 M 22055 55 l 0 25 M 22105 55 l 0 25 M 22130 55 l 0 25 M 22155 55 l 0 25 M 22180 55 l 0 25 M 22030 80 l 0 25 M 22080 80 l 0 25 M 22130 80 l 0 25 M 22155 80 l 0 25 M 22180 80 l 0 25 M 22030 105 l 0 25 M 22055 105 l 0 25 M 22080 105 l 0 25 M 22105 105 l 0 25 M 22180 105 l 0 25 M 22005 130 l 0 25 M 22080 130 l 0 25 M 22105 130 l 0 25 M 22130 130 l 0 25 M 22155 130 l 0 25 M 22180 130 l 0 25 M 22005 155 l 0 25 M 22030 155 l 0 25 M 22105 155 l 0 25 M 22155 155 l 0 25 M 22005 180 l 0 25 M 22055 180 l 0 25 M 22080 180 l 0 25 M 22130 180 l 0 25 M 22155 180 l 0 25 M 22030 205 l 0 25 M 22080 205 l 0 25 M 22130 205 l 0 25 M 22155 205 l 0 25 M 22030 230 l 0 25 M 22080 230 l 0 25 M 22105 230 l 0 25 M 22155 230 l 0 25 M 22055 255 l 0 25 M 22105 255 l 0 25 M 22130 255 l 0 25 M 22155 255 l 0 25 M 22080 280 l 0 25 M 22155 280 l 0 25 M 22130 305 l 0 25 M 22155 305 l 0 25" stroke-width="3" /></g><g stroke="black" stroke-linecap="round" stroke-width="0.25"><g fill="#EEAAAA"><rect height="25" width="25" x="55" y="8205" /><rect height="25" width="25" x="80" y="8205" /><rect height="25" width="25" x="30" y="8230" /><rect height="25" width="25" x="55" y="8230" /><rect height="25" width="25" x="55" y="8255" /></g><g fill="#DDBB99"><rect height="25" width="25" x="130" y="8155" /><rect height="25" width="25" x="80" y="8180" /><rect height="25" width="25" x="105" y="8180" /><rect height="25" width="25" x="130" y="8180" /><rect height="25" width="25" x="105" y="8205" /></g><g fill="#BBDD99"><rect height="25" width="25" x="30" y="8330" /><rect height="25" width="25" x="55" y="8330" /><rect height="25" width="25" x="30" y="8355" /><rect height="25" width="25" x="55" y="8355" /><rect height="25" width="25" x="30" y="8380" /></g><g fill="#DD99BB"><rect height="25" width="25" x="80" y="8230" /><rect height="25" width="25" x="105" y="8230" /><rect height="25" width="25" x="80" y="8255" /><rect height="25" width="25" x="55" y="8280" /><rect height="25" width="25" x="80" y="8280" /></g><g fill="#99BBDD"><rect height="25" width="25" x="130" y="8280" /><rect height="25" width="25" x="130" y="8305" /><rect height="25" width="25" x="80" y="8330" /><rect height="25" width="25" x="105" y="8330" /><rect height="25" width="25" x="130" y="8330" /></g><g fill="#BB99DD"><rect height="25" width="25" x="30" y="8255" /><rect height="25" width="25" x="5" y="8280" /><rect height="25" width="25" x="30" y="8280" /><rect height="25" width="25" x="5" y="8305" /><rect height="25" width="25" x="5" y="8330" /></g><g fill="#CC88CC"><rect height="25" width="25" x="155" y="8155" /><rect height="25" width="25" x="155" y="8180" /><rect height="25" width="25" x="130" y="8205" /><rect height="25" width="25" x="155" y="8205" /><rect height="25" width="25" x="130" y="8230" /></g><g fill="#AAEEAA"><rect height="25" width="25" x="105" y="8380" /><rect height="25" width="25" x="105" y="8405" /><rect height="25" width="25" x="130" y="8405" /><rect height="25" width="25" x="130" y="8430" /><rect height="25" width="25" x="130" y="8455" /></g><g fill="#CCCC88"><rect height="25" width="25" x="105" y="8280" /><rect height="25" width="25" x="30" y="8305" /><rect height="25" width="25" x="55" y="8305" /><rect height="25" width="25" x="80" y="8305" /><rect height="25" width="25" x="105" y="8305" /></g><g fill="#88CCCC"><rect height="25" width="25" x="80" y="8355" /><rect height="25" width="25" x="105" y="8355" /><rect height="25" width="25" x="130" y="8355" /><rect height="25" width="25" x="80" y="8380" /><rect height="25" width="25" x="130" y="8380" /></g><g fill="#AAAAEE"><rect height="25" width="25" x="55" y="8380" /><rect height="25" width="25" x="55" y="8405" /><rect height="25" width="25" x="80" y="8405" /><rect height="25" width="25" x="80" y="8430" /><rect height="25" width="25" x="105" y="8430" /></g><g fill="#99DDBB"><rect height="25" width="25" x="155" y="8230" /><rect height="25" width="25" x="105" y="8255" /><rect height="25" width="25" x="130" y="8255" /><rect height="25" width="25" x="155" y="8255" /><rect height="25" width="25" x="155" y="8280" /></g><path d="M 130 8155 l 25 0 M 155 8155 l 25 0 M 80 8180 l 25 0 M 105 8180 l 25 0 M 55 8205 l 25 0 M 80 8205 l 25 0 M 130 8205 l 25 0 M 30 8230 l 25 0 M 80 8230 l 25 0 M 105 8230 l 25 0 M 155 8230 l 25 0 M 30 8255 l 25 0 M 105 8255 l 25 0 M 130 8255 l 25 0 M 5 8280 l 25 0 M 55 8280 l 25 0 M 105 8280 l 25 0 M 130 8280 l 25 0 M 30 8305 l 25 0 M 55 8305 l 25 0 M 80 8305 l 25 0 M 155 8305 l 25 0 M 30 8330 l 25 0 M 55 8330 l 25 0 M 80 8330 l 25 0 M 105 8330 l 25 0 M 5 8355 l 25 0 M 80 8355 l 25 0 M 105 8355 l 25 0 M 130 8355 l 25 0 M 55 8380 l 25 0 M 105 8380 l 25 0 M 30 8405 l 25 0 M 80 8405 l 25 0 M 130 8405 l 25 0 M 55 8430 l 25 0 M 105 8430 l 25 0 M 80 8455 l 25 0 M 105 8455 l 25 0 M 130 8480 l 25 0 M 130 8155 l 0 25 M 155 8155 l 0 25 M 180 8155 l 0 25 M 80 8180 l 0 25 M 155 8180 l 0 25 M 180 8180 l 0 25 M 55 8205 l 0 25 M 105 8205 l 0 25 M 130 8205 l 0 25 M 180 8205 l 0 25 M 30 8230 l 0 25 M 80 8230 l 0 25 M 130 8230 l 0 25 M 155 8230 l 0 25 M 180 8230 l 0 25 M 30 8255 l 0 25 M 55 8255 l 0 25 M 80 8255 l 0 25 M 105 8255 l 0 25 M 180 8255 l 0 25 M 5 8280 l 0 25 M 55 8280 l 0 25 M 105 8280 l 0 25 M 130 8280 l 0 25 M 155 8280 l 0 25 M 180 8280 l 0 25 M 5 8305 l 0 25 M 30 8305 l 0 25 M 130 8305 l 0 25 M 155 8305 l 0 25 M 5 8330 l 0 25 M 30 8330 l 0 25 M 80 8330 l 0 25 M 155 8330 l 0 25 M 30 8355 l 0 25 M 80 8355 l 0 25 M 155 8355 l 0 25 M 30 8380 l 0 25 M 55 8380 l 0 25 M 80 8380 l 0 25 M 105 8380 l 0 25 M 130 8380 l 0 25 M 155 8380 l 0 25 M 55 8405 l 0 25 M 105 8405 l 0 25 M 155 8405 l 0 25 M 80 8430 l 0 25 M 130 8430 l 0 25 M 155 8430 l 0 25 M 130 8455 l 0 25 M 155 8455 l 0 25" stroke-width="3" /></g><g stroke="black" stroke-linecap="round" stroke-width="0.25"><g fill="#EEAAAA"><rect height="25" width="25" x="4455" y="8205" /><rect height="25" width="25" x="4480" y="8205" /><rect height="25" width="25" x="4430" y="8230" /><rect height="25" width="25" x="4455" y="8230" /><rect height="25" width="25" x="4455" y="8255" /></g><g fill="#DDBB99"><rect height="25" width="25" x="4530" y="8155" /><rect height="25" width="25" x="4480" y="8180" /><rect height="25" width="25" x="4505" y="8180" /><rect height="25" width="25" x="4530" y="8180" /><rect height="25" width="25" x="4505" y="8205" /></g><g fill="#BBDD99"><rect height="25" width="25" x="4430" y="8330" /><rect height="25" width="25" x="4455" y="8330" /><rect height="25" width="25" x="4430" y="8355" /><rect height="25" width="25" x="4455" y="8355" /><rect height="25" width="25" x="4430" y="8380" /></g><g fill="#DD99BB"><rect height="25" width="25" x="4480" y="8230" /><rect height="25" width="25" x="4505" y="8230" /><rect height="25" width="25" x="4480" y="8255" /><rect height="25" width="25" x="4455" y="8280" /><rect height="25" width="25" x="4480" y="8280" /></g><g fill="#99BBDD"><rect height="25" width="25" x="4530" y="8280" /><rect height="25" width="25" x="4530" y="8305" /><rect height="25" width="25" x="4480" y="8330" /><rect height="25" width="25" x="4505" y="8330" /><rect height="25" width="25" x="4530" y="8330" /></g><g fill="#BB99DD"><rect height="25" width="25" x="4555" y="8155" /><rect height="25" width="25" x="4555" y="8180" /><rect height="25" width="25" x="4530" y="8205" /><rect height="25" width="25" x="4555" y="8205" /><rect height="25" width="25" x="4530" y="8230" /></g><g fill="#CC88CC"><rect height="25" width="25" x="4430" y="8255" /><rect height="25" width="25" x="4405" y="8280" /><rect height="25" width="25" x="4430" y="8280" /><rect height="25" width="25" x="4405" y="8305" /><rect height="25" width="25" x="4405" y="8330" /></g><g fill="#AAEEAA"><rect height="25" width="25" x="4505" y="8380" /><rect height="25" width="25" x="4505" y="8405" /><rect height="25" width="25" x="4530" y="8405" /><rect height="25" width="25" x="4530" y="8430" /><rect height="25" width="25" x="4530" y="8455" /></g><g fill="#CCCC88"><rect height="25" width="25" x="4505" y="8280" /><rect height="25" width="25" x="4430" y="8305" /><rect height="25" width="25" x="4455" y="8305" /><rect height="25" width="25" x="4480" y="8305" /><rect height="25" width="25" x="4505" y="8305" /></g><g fill="#88CCCC"><rect height="25" width="25" x="4480" y="8355" /><rect height="25" width="25" x="4505" y="8355" /><rect height="25" width="25" x="4530" y="8355" /><rect height="25" width="25" x="4480" y="8380" /><rect height="25" width="25" x="4530" y="8380" /></g><g fill="#AAAAEE"><rect height="25" width="25" x="4455" y="8380" /><rect height="25" width="25" x="4455" y="8405" /><rect height="25" width="25" x="4480" y="8405" /><rect height="25" width="25" x="4480" y="8430" /><rect height="25" width="25" x="4505" y="8430" /></g><g fill="#99DDBB"><rect height="25" width="25" x="4555" y="8230" /><rect height="25" width="25" x="4505" y="8255" /><rect height="25" width="25" x="4530" y="8255" /><rect height="25" width="25" x="4555" y="8255" /><rect height="25" width="25" x="4555" y="8280" /></g><path d="M 4530 8155 l 25 0 M 4555 8155 l 25 0 M 4480 8180 l 25 0 M 4505 8180 l 25 0 M 4455 8205 l 25 0 M 4480 8205 l 25 0 M 4530 8205 l 25 0 M 4430 8230 l 25 0 M 4480 8230 l 25 0 M 4505 8230 l 25 0 M 4555 8230 l 25 0 M 4430 8255 l 25 0 M 4505 8255 l 25 0 M 4530 8255 l 25 0 M 4405 8280 l 25 0 M 4455 8280 l 25 0 M 4505 8280 l 25 0 M 4530 8280 l 25 0 M 4430 8305 l 25 0 M 4455 8305 l 25 0 M 4480 8305 l 25 0 M 4555 8305 l 25 0 M 4430 8330 l 25 0 M 4455 8330 l 25 0 M 4480 8330 l 25 0 M 4505 8330 l 25 0 M 4405 8355 l 25 0 M 4480 8355 l 25 0 M 4505 8355 l 25 0 M 4530 8355 l 25 0 M 4455 8380 l 25 0 M 4505 8380 l 25 0 M 4430 8405 l 25 0 M 4480 8405 l 25 0 M 4530 8405 l 25 0 M 4455 8430 l 25 0 M 4505 8430 l 25 0 M 4480 8455 l 25 0 M 4505 8455 l 25 0 M 4530 8480 l 25 0 M 4530 8155 l 0 25 M 4555 8155 l 0 25 M 4580 8155 l 0 25 M 4480 8180 l 0 25 M 4555 8180 l 0 25 M 4580 8180 l 0 25 M 4455 8205 l 0 25 M 4505 8205 l 0 25 M 4530 8205 l 0 25 M 4580 8205 l 0 25 M 4430 8230 l 0 25 M 4480 8230 l 0 25 M 4530 8230 l 0 25 M 4555 8230 l 0 25 M 4580 8230 l 0 25 M 4430 8255 l 0 25 M 4455 8255 l 0 25 M 4480 8255 l 0 25 M 4505 8255 l 0 25 M 4580 8255 l 0 25 M 4405 8280 l 0 25 M 4455 8280 l 0 25 M 4505 8280 l 0 25 M 4530 8280 l 0 25 M 4555 8280 l 0 25 M 4580 8280 l 0 25 M 4405 8305 l 0 25 M 4430 8305 l 0 25 M 4530 8305 l 0 25 M 4555 8305 l 0 25 M 4405 8330 l 0 25 M 4430 8330 l 0 25 M 4480 8330 l 0 25 M 4555 8330 l 0 25 M 4430 8355 l 0 25 M 4480 8355 l 0 25 M 4555 8355 l 0 25 M 4430 8380 l 0 25 M 4455 8380 l 0 25 M 4480 8380 l 0 25 M 4505 8380 l 0 25 M 4530 8380 l 0 25 M 4555 8380 l 0 25 M 4455 8405 l 0 25 M 4505 8405 l 0 25 M 4555 8405 l 0 25 M 4480 8430 l 0 25 M 4530 8430 l 0 25 M 4555 8430 l 0 25 M 4530 8455 l 0 25 M 4555 8455 l 0 25" stroke-width="3" /></g><g stroke="black" stroke-linecap="round" stroke-width="0.25"><g fill="#EEAAAA"><rect height="25" width="25" x="8855" y="8205" /><rect height="25" width="25" x="8880" y="8205" /><rect height="25" width="25" x="8830" y="8230" /><rect height="25" width="25" x="8855" y="8230" /><rect height="25" width="25" x="8855" y="8255" /></g><g fill="#DDBB99"><rect height="25" width="25" x="8880" y="8355" /><rect height="25" width="25" x="8830" y="8380" /><rect height="25" width="25" x="8855" y="8380" /><rect height="25" width="25" x="8880" y="8380" /><rect height="25" width="25" x="8855" y="8405" /></g><g fill="#BBDD99"><rect height="25" width="25" x="8880" y="8180" /><rect height="25" width="25" x="8905" y="8180" /><rect height="25" width="25" x="8930" y="8180" /><rect height="25" width="25" x="8905" y="8205" /><rect height="25" width="25" x="8930" y="8205" /></g><g fill="#DD99BB"><rect height="25" width="25" x="8880" y="8230" /><rect height="25" width="25" x="8905" y="8230" /><rect height="25" width="25" x="8880" y="8255" /><rect height="25" width="25" x="8855" y="8280" /><rect height="25" width="25" x="8880" y="8280" /></g><g fill="#99BBDD"><rect height="25" width="25" x="8830" y="8255" /><rect height="25" width="25" x="8830" y="8280" /><rect height="25" width="25" x="8830" y="8305" /><rect height="25" width="25" x="8855" y="8305" /><rect height="25" width="25" x="8880" y="8305" /></g><g fill="#BB99DD"><rect height="25" width="25" x="8930" y="8230" /><rect height="25" width="25" x="8905" y="8255" /><rect height="25" width="25" x="8930" y="8255" /><rect height="25" width="25" x="8905" y="8280" /><rect height="25" width="25" x="8905" y="8305" /></g><g fill="#CC88CC"><rect height="25" width="25" x="8955" y="8255" /><rect height="25" width="25" x="8930" y="8280" /><rect height="25" width="25" x="8955" y="8280" /><rect height="25" width="25" x="8930" y="8305" /><rect height="25" width="25" x="8930" y="8330" /></g><g fill="#AAEEAA"><rect height="25" width="25" x="8805" y="8280" /><rect height="25" width="25" x="8805" y="8305" /><rect height="25" width="25" x="8805" y="8330" /><rect height="25" width="25" x="8830" y="8330" /><rect height="25" width="25" x="8830" y="8355" /></g><g fill="#CCCC88"><rect height="25" width="25" x="8930" y="8155" /><rect height="25" width="25" x="8955" y="8155" /><rect height="25" width="25" x="8955" y="8180" /><rect height="25" width="25" x="8955" y="8205" /><rect height="25" width="25" x="8955" y="8230" /></g><g fill="#88CCCC"><rect height="25" width="25" x="8855" y="8330" /><rect height="25" width="25" x="8880" y="8330" /><rect height="25" width="25" x="8905" y="8330" /><rect height="25" width="25" x="8855" y="8355" /><rect height="25" width="25" x="8905" y="8355" /></g><g fill="#AAAAEE"><rect height="25" width="25" x="8930" y="8355" /><rect height="25" width="25" x="8905" y="8380" /><rect height="25" width="25" x="8930" y="8380" /><rect height="25" width="25" x="8880" y="8405" /><rect height="25" width="25" x="8905" y="8405" /></g><g fill="#99DDBB"><rect height="25" width="25" x="8930" y="8405" /><rect height="25" width="25" x="8880" y="8430" /><rect height="25" width="25" x="8905" y="8430" /><rect height="25" width="25" x="8930" y="8430" /><rect height="25" width="25" x="8930" y="8455" /></g><path d="M 8930 8155 l 25 0 M 8955 8155 l 25 0 M 8880 8180 l 25 0 M 8905 8180 l 25 0 M 8930 8180 l 25 0 M 8855 8205 l 25 0 M 8880 8205 l 25 0 M 8830 8230 l 25 0 M 8880 8230 l 25 0 M 8905 8230 l 25 0 M 8930 8230 l 25 0 M 8830 8255 l 25 0 M 8905 8255 l 25 0 M 8955 8255 l 25 0 M 8805 8280 l 25 0 M 8855 8280 l 25 0 M 8930 8280 l 25 0 M 8855 8305 l 25 0 M 8880 8305 l 25 0 M 8955 8305 l 25 0 M 8830 8330 l 25 0 M 8855 8330 l 25 0 M 8880 8330 l 25 0 M 8905 8330 l 25 0 M 8805 8355 l 25 0 M 8880 8355 l 25 0 M 8930 8355 l 25 0 M 8830 8380 l 25 0 M 8855 8380 l 25 0 M 8905 8380 l 25 0 M 8830 8405 l 25 0 M 8880 8405 l 25 0 M 8930 8405 l 25 0 M 8855 8430 l 25 0 M 8880 8430 l 25 0 M 8905 8430 l 25 0 M 8880 8455 l 25 0 M 8905 8455 l 25 0 M 8930 8480 l 25 0 M 8930 8155 l 0 25 M 8980 8155 l 0 25 M 8880 8180 l 0 25 M 8955 8180 l 0 25 M 8980 8180 l 0 25 M 8855 8205 l 0 25 M 8905 8205 l 0 25 M 8955 8205 l 0 25 M 8980 8205 l 0 25 M 8830 8230 l 0 25 M 8880 8230 l 0 25 M 8930 8230 l 0 25 M 8955 8230 l 0 25 M 8980 8230 l 0 25 M 8830 8255 l 0 25 M 8855 8255 l 0 25 M 8880 8255 l 0 25 M 8905 8255 l 0 25 M 8955 8255 l 0 25 M 8980 8255 l 0 25 M 8805 8280 l 0 25 M 8830 8280 l 0 25 M 8855 8280 l 0 25 M 8905 8280 l 0 25 M 8930 8280 l 0 25 M 8980 8280 l 0 25 M 8805 8305 l 0 25 M 8830 8305 l 0 25 M 8905 8305 l 0 25 M 8930 8305 l 0 25 M 8955 8305 l 0 25 M 8805 8330 l 0 25 M 8855 8330 l 0 25 M 8930 8330 l 0 25 M 8955 8330 l 0 25 M 8830 8355 l 0 25 M 8855 8355 l 0 25 M 8880 8355 l 0 25 M 8905 8355 l 0 25 M 8930 8355 l 0 25 M 8955 8355 l 0 25 M 8830 8380 l 0 25 M 8905 8380 l 0 25 M 8955 8380 l 0 25 M 8855 8405 l 0 25 M 8880 8405 l 0 25 M 8930 8405 l 0 25 M 8955 8405 l 0 25 M 8880 8430 l 0 25 M 8955 8430 l 0 25 M 8930 8455 l 0 25 M 8955 8455 l 0 25" stroke-width="3" /></g><g stroke="black" stroke-linecap="round" stroke-width="0.25"><g fill="#EEAAAA"><rect height="25" width="25" x="13255" y="8205" /><rect height="25" width="25" x="13280" y="8205" /><rect height="25" width="25" x="13230" y="8230" /><rect height="25" width="25" x="13255" y="8230" /><rect height="25" width="25" x="13255" y="8255" /></g><g fill="#DDBB99"><rect height="25" width="25" x="13280" y="8355" /><rect height="25" width="25" x="13230" y="8380" /><rect height="25" width="25" x="13255" y="8380" /><rect height="25" width="25" x="13280" y="8380" /><rect height="25" width="25" x="13255" y="8405" /></g><g fill="#BBDD99"><rect height="25" width="25" x="13280" y="8180" /><rect height="25" width="25" x="13305" y="8180" /><rect height="25" width="25" x="13330" y="8180" /><rect height="25" width="25" x="13305" y="8205" /><rect height="25" width="25" x="13330" y="8205" /></g><g fill="#DD99BB"><rect height="25" width="25" x="13280" y="8230" /><rect height="25" width="25" x="13305" y="8230" /><rect height="25" width="25" x="13280" y="8255" /><rect height="25" width="25" x="13255" y="8280" /><rect height="25" width="25" x="13280" y="8280" /></g><g fill="#99BBDD"><rect height="25" width="25" x="13230" y="8255" /><rect height="25" width="25" x="13230" y="8280" /><rect height="25" width="25" x="13230" y="8305" /><rect height="25" width="25" x="13255" y="8305" /><rect height="25" width="25" x="13280" y="8305" /></g><g fill="#BB99DD"><rect height="25" width="25" x="13355" y="8255" /><rect height="25" width="25" x="13330" y="8280" /><rect height="25" width="25" x="13355" y="8280" /><rect height="25" width="25" x="13330" y="8305" /><rect height="25" width="25" x="13330" y="8330" /></g><g fill="#CC88CC"><rect height="25" width="25" x="13330" y="8230" /><rect height="25" width="25" x="13305" y="8255" /><rect height="25" width="25" x="13330" y="8255" /><rect height="25" width="25" x="13305" y="8280" /><rect height="25" width="25" x="13305" y="8305" /></g><g fill="#AAEEAA"><rect height="25" width="25" x="13205" y="8280" /><rect height="25" width="25" x="13205" y="8305" /><rect height="25" width="25" x="13205" y="8330" /><rect height="25" width="25" x="13230" y="8330" /><rect height="25" width="25" x="13230" y="8355" /></g><g fill="#CCCC88"><rect height="25" width="25" x="13330" y="8155" /><rect height="25" width="25" x="13355" y="8155" /><rect height="25" width="25" x="13355" y="8180" /><rect height="25" width="25" x="13355" y="8205" /><rect height="25" width="25" x="13355" y="8230" /></g><g fill="#88CCCC"><rect height="25" width="25" x="13255" y="8330" /><rect height="25" width="25" x="13280" y="8330" /><rect height="25" width="25" x="13305" y="8330" /><rect height="25" width="25" x="13255" y="8355" /><rect height="25" width="25" x="13305" y="8355" /></g><g fill="#AAAAEE"><rect height="25" width="25" x="13330" y="8355" /><rect height="25" width="25" x="13305" y="8380" /><rect height="25" width="25" x="13330" y="8380" /><rect height="25" width="25" x="13280" y="8405" /><rect height="25" width="25" x="13305" y="8405" /></g><g fill="#99DDBB"><rect height="25" width="25" x="13330" y="8405" /><rect height="25" width="25" x="13280" y="8430" /><rect height="25" width="25" x="13305" y="8430" /><rect height="25" width="25" x="13330" y="8430" /><rect height="25" width="25" x="13330" y="8455" /></g><path d="M 13330 8155 l 25 0 M 13355 8155 l 25 0 M 13280 8180 l 25 0 M 13305 8180 l 25 0 M 13330 8180 l 25 0 M 13255 8205 l 25 0 M 13280 8205 l 25 0 M 13230 8230 l 25 0 M 13280 8230 l 25 0 M 13305 8230 l 25 0 M 13330 8230 l 25 0 M 13230 8255 l 25 0 M 13305 8255 l 25 0 M 13355 8255 l 25 0 M 13205 8280 l 25 0 M 13255 8280 l 25 0 M 13330 8280 l 25 0 M 13255 8305 l 25 0 M 13280 8305 l 25 0 M 13355 8305 l 25 0 M 13230 8330 l 25 0 M 13255 8330 l 25 0 M 13280 8330 l 25 0 M 13305 8330 l 25 0 M 13205 8355 l 25 0 M 13280 8355 l 25 0 M 13330 8355 l 25 0 M 13230 8380 l 25 0 M 13255 8380 l 25 0 M 13305 8380 l 25 0 M 13230 8405 l 25 0 M 13280 8405 l 25 0 M 13330 8405 l 25 0 M 13255 8430 l 25 0 M 13280 8430 l 25 0 M 13305 8430 l 25 0 M 13280 8455 l 25 0 M 13305 8455 l 25 0 M 13330 8480 l 25 0 M 13330 8155 l 0 25 M 13380 8155 l 0 25 M 13280 8180 l 0 25 M 13355 8180 l 0 25 M 13380 8180 l 0 25 M 13255 8205 l 0 25 M 13305 8205 l 0 25 M 13355 8205 l 0 25 M 13380 8205 l 0 25 M 13230 8230 l 0 25 M 13280 8230 l 0 25 M 13330 8230 l 0 25 M 13355 8230 l 0 25 M 13380 8230 l 0 25 M 13230 8255 l 0 25 M 13255 8255 l 0 25 M 13280 8255 l 0 25 M 13305 8255 l 0 25 M 13355 8255 l 0 25 M 13380 8255 l 0 25 M 13205 8280 l 0 25 M 13230 8280 l 0 25 M 13255 8280 l 0 25 M 13305 8280 l 0 25 M 13330 8280 l 0 25 M 13380 8280 l 0 25 M 13205 8305 l 0 25 M 13230 8305 l 0 25 M 13305 8305 l 0 25 M 13330 8305 l 0 25 M 13355 8305 l 0 25 M 13205 8330 l 0 25 M 13255 8330 l 0 25 M 13330 8330 l 0 25 M 13355 8330 l 0 25 M 13230 8355 l 0 25 M 13255 8355 l 0 25 M 13280 8355 l 0 25 M 13305 8355 l 0 25 M 13330 8355 l 0 25 M 13355 8355 l 0 25 M 13230 8380 l 0 25 M 13305 8380 l 0 25 M 13355 8380 l 0 25 M 13255 8405 l 0 25 M 13280 8405 l 0 25 M 13330 8405 l 0 25 M 13355 8405 l 0 25 M 13280 8430 l 0 25 M 13355 8430 l 0 25 M 13330 8455 l 0 25 M 13355 8455 l 0 25" stroke-width="3" /></g><g stroke="black" stroke-linecap="round" stroke-width="0.25"><g fill="#EEAAAA"><rect height="25" width="25" x="17705" y="8205" /><rect height="25" width="25" x="17730" y="8205" /><rect height="25" width="25" x="17680" y="8230" /><rect height="25" width="25" x="17705" y="8230" /><rect height="25" width="25" x="17705" y="8255" /></g><g fill="#DDBB99"><rect height="25" width="25" x="17605" y="8330" /><rect height="25" width="25" x="17630" y="8330" /><rect height="25" width="25" x="17630" y="8355" /><rect height="25" width="25" x="17655" y="8355" /><rect height="25" width="25" x="17630" y="8380" /></g><g fill="#BBDD99"><rect height="25" width="25" x="17730" y="8355" /><rect height="25" width="25" x="17705" y="8380" /><rect height="25" width="25" x="17730" y="8380" /><rect height="25" width="25" x="17705" y="8405" /><rect height="25" width="25" x="17730" y="8405" /></g><g fill="#DD99BB"><rect height="25" width="25" x="17680" y="8405" /><rect height="25" width="25" x="17680" y="8430" /><rect height="25" width="25" x="17705" y="8430" /><rect height="25" width="25" x="17730" y="8430" /><rect height="25" width="25" x="17730" y="8455" /></g><g fill="#99BBDD"><rect height="25" width="25" x="17705" y="8280" /><rect height="25" width="25" x="17705" y="8305" /><rect height="25" width="25" x="17655" y="8330" /><rect height="25" width="25" x="17680" y="8330" /><rect height="25" width="25" x="17705" y="8330" /></g><g fill="#BB99DD"><rect height="25" width="25" x="17755" y="8255" /><rect height="25" width="25" x="17730" y="8280" /><rect height="25" width="25" x="17755" y="8280" /><rect height="25" width="25" x="17730" y="8305" /><rect height="25" width="25" x="17730" y="8330" /></g><g fill="#CC88CC"><rect height="25" width="25" x="17755" y="8180" /><rect height="25" width="25" x="17755" y="8205" /><rect height="25" width="25" x="17730" y="8230" /><rect height="25" width="25" x="17755" y="8230" /><rect height="25" width="25" x="17730" y="8255" /></g><g fill="#AAEEAA"><rect height="25" width="25" x="17730" y="8155" /><rect height="25" width="25" x="17755" y="8155" /><rect height="25" width="25" x="17680" y="8180" /><rect height="25" width="25" x="17705" y="8180" /><rect height="25" width="25" x="17730" y="8180" /></g><g fill="#CCCC88"><rect height="25" width="25" x="17680" y="8280" /><rect height="25" width="25" x="17605" y="8305" /><rect height="25" width="25" x="17630" y="8305" /><rect height="25" width="25" x="17655" y="8305" /><rect height="25" width="25" x="17680" y="8305" /></g><g fill="#88CCCC"><rect height="25" width="25" x="17655" y="8205" /><rect height="25" width="25" x="17680" y="8205" /><rect height="25" width="25" x="17655" y="8230" /><rect height="25" width="25" x="17655" y="8255" /><rect height="25" width="25" x="17680" y="8255" /></g><g fill="#AAAAEE"><rect height="25" width="25" x="17680" y="8355" /><rect height="25" width="25" x="17705" y="8355" /><rect height="25" width="25" x="17655" y="8380" /><rect height="25" width="25" x="17680" y="8380" /><rect height="25" width="25" x="17655" y="8405" /></g><g fill="#99DDBB"><rect height="25" width="25" x="17630" y="8230" /><rect height="25" width="25" x="17630" y="8255" /><rect height="25" width="25" x="17605" y="8280" /><rect height="25" width="25" x="17630" y="8280" /><rect height="25" width="25" x="17655" y="8280" /></g><path d="M 17730 8155 l 25 0 M 17755 8155 l 25 0 M 17680 8180 l 25 0 M 17705 8180 l 25 0 M 17755 8180 l 25 0 M 17655 8205 l 25 0 M 17680 8205 l 25 0 M 17705 8205 l 25 0 M 17730 8205 l 25 0 M 17630 8230 l 25 0 M 17680 8230 l 25 0 M 17730 8230 l 25 0 M 17680 8255 l 25 0 M 17755 8255 l 25 0 M 17605 8280 l 25 0 M 17655 8280 l 25 0 M 17680 8280 l 25 0 M 17705 8280 l 25 0 M 17730 8280 l 25 0 M 17605 8305 l 25 0 M 17630 8305 l 25 0 M 17655 8305 l 25 0 M 17755 8305 l 25 0 M 17605 8330 l 25 0 M 17630 8330 l 25 0 M 17655 8330 l 25 0 M 17680 8330 l 25 0 M 17605 8355 l 25 0 M 17655 8355 l 25 0 M 17680 8355 l 25 0 M 17705 8355 l 25 0 M 17730 8355 l 25 0 M 17655 8380 l 25 0 M 17705 8380 l 25 0 M 17630 8405 l 25 0 M 17680 8405 l 25 0 M 17655 8430 l 25 0 M 17705 8430 l 25 0 M 17730 8430 l 25 0 M 17680 8455 l 25 0 M 17705 8455 l 25 0 M 17730 8480 l 25 0 M 17730 8155 l 0 25 M 17780 8155 l 0 25 M 17680 8180 l 0 25 M 17755 8180 l 0 25 M 17780 8180 l 0 25 M 17655 8205 l 0 25 M 17705 8205 l 0 25 M 17755 8205 l 0 25 M 17780 8205 l 0 25 M 17630 8230 l 0 25 M 17655 8230 l 0 25 M 17680 8230 l 0 25 M 17730 8230 l 0 25 M 17780 8230 l 0 25 M 17630 8255 l 0 25 M 17655 8255 l 0 25 M 17705 8255 l 0 25 M 17730 8255 l 0 25 M 17755 8255 l 0 25 M 17780 8255 l 0 25 M 17605 8280 l 0 25 M 17680 8280 l 0 25 M 17705 8280 l 0 25 M 17730 8280 l 0 25 M 17780 8280 l 0 25 M 17605 8305 l 0 25 M 17705 8305 l 0 25 M 17730 8305 l 0 25 M 17755 8305 l 0 25 M 17605 8330 l 0 25 M 17655 8330 l 0 25 M 17730 8330 l 0 25 M 17755 8330 l 0 25 M 17630 8355 l 0 25 M 17680 8355 l 0 25 M 17730 8355 l 0 25 M 17755 8355 l 0 25 M 17630 8380 l 0 25 M 17655 8380 l 0 25 M 17705 8380 l 0 25 M 17755 8380 l 0 25 M 17655 8405 l 0 25 M 17680 8405 l 0 25 M 17705 8405 l 0 25 M 17755 8405 l 0 25 M 17680 8430 l 0 25 M 17755 8430 l 0 25 M 17730 8455 l 0 25 M 17755 8455 l 0 25" stroke-width="3" /></g><g stroke="black" stroke-linecap="round" stroke-width="0.25"><g fill="#EEAAAA"><rect height="25" width="25" x="22105" y="8205" /><rect height="25" width="25" x="22130" y="8205" /><rect height="25" width="25" x="22080" y="8230" /><rect height="25" width="25" x="22105" y="8230" /><rect height="25" width="25" x="22105" y="8255" /></g><g fill="#DDBB99"><rect height="25" width="25" x="22005" y="8330" /><rect height="25" width="25" x="22030" y="8330" /><rect height="25" width="25" x="22030" y="8355" /><rect height="25" width="25" x="22055" y="8355" /><rect height="25" width="25" x="22030" y="8380" /></g><g fill="#BBDD99"><rect height="25" width="25" x="22130" y="8355" /><rect height="25" width="25" x="22105" y="8380" /><rect height="25" width="25" x="22130" y="8380" /><rect height="25" width="25" x="22105" y="8405" /><rect height="25" width="25" x="22130" y="8405" /></g><g fill="#DD99BB"><rect height="25" width="25" x="22080" y="8405" /><rect height="25" width="25" x="22080" y="8430" /><rect height="25" width="25" x="22105" y="8430" /><rect height="25" width="25" x="22130" y="8430" /><rect height="25" width="25" x="22130" y="8455" /></g><g fill="#99BBDD"><rect height="25" width="25" x="22105" y="8280" /><rect height="25" width="25" x="22105" y="8305" /><rect height="25" width="25" x="22055" y="8330" /><rect height="25" width="25" x="22080" y="8330" /><rect height="25" width="25" x="22105" y="8330" /></g><g fill="#BB99DD"><rect height="25" width="25" x="22155" y="8180" /><rect height="25" width="25" x="22155" y="8205" /><rect height="25" width="25" x="22130" y="8230" /><rect height="25" width="25" x="22155" y="8230" /><rect height="25" width="25" x="22130" y="8255" /></g><g fill="#CC88CC"><rect height="25" width="25" x="22155" y="8255" /><rect height="25" width="25" x="22130" y="8280" /><rect height="25" width="25" x="22155" y="8280" /><rect height="25" width="25" x="22130" y="8305" /><rect height="25" width="25" x="22130" y="8330" /></g><g fill="#AAEEAA"><rect height="25" width="25" x="22130" y="8155" /><rect height="25" width="25" x="22155" y="8155" /><rect height="25" width="25" x="22080" y="8180" /><rect height="25" width="25" x="22105" y="8180" /><rect height="25" width="25" x="22130" y="8180" /></g><g fill="#CCCC88"><rect height="25" width="25" x="22080" y="8280" /><rect height="25" width="25" x="22005" y="8305" /><rect height="25" width="25" x="22030" y="8305" /><rect height="25" width="25" x="22055" y="8305" /><rect height="25" width="25" x="22080" y="8305" /></g><g fill="#88CCCC"><rect height="25" width="25" x="22055" y="8205" /><rect height="25" width="25" x="22080" y="8205" /><rect height="25" width="25" x="22055" y="8230" /><rect height="25" width="25" x="22055" y="8255" /><rect height="25" width="25" x="22080" y="8255" /></g><g fill="#AAAAEE"><rect height="25" width="25" x="22080" y="8355" /><rect height="25" width="25" x="22105" y="8355" /><rect height="25" width="25" x="22055" y="8380" /><rect height="25" width="25" x="22080" y="8380" /><rect height="25" width="25" x="22055" y="8405" /></g><g fill="#99DDBB"><rect height="25" width="25" x="22030" y="8230" /><rect height="25" width="25" x="22030" y="8255" /><rect height="25" width="25" x="22005" y="8280" /><rect height="25" width="25" x="22030" y="8280" /><rect height="25" width="25" x="22055" y="8280" /></g><path d="M 22130 8155 l 25 0 M 22155 8155 l 25 0 M 22080 8180 l 25 0 M 22105 8180 l 25 0 M 22155 8180 l 25 0 M 22055 8205 l 25 0 M 22080 8205 l 25 0 M 22105 8205 l 25 0 M 22130 8205 l 25 0 M 22030 8230 l 25 0 M 22080 8230 l 25 0 M 22130 8230 l 25 0 M 22080 8255 l 25 0 M 22155 8255 l 25 0 M 22005 8280 l 25 0 M 22055 8280 l 25 0 M 22080 8280 l 25 0 M 22105 8280 l 25 0 M 22130 8280 l 25 0 M 22005 8305 l 25 0 M 22030 8305 l 25 0 M 22055 8305 l 25 0 M 22155 8305 l 25 0 M 22005 8330 l 25 0 M 22030 8330 l 25 0 M 22055 8330 l 25 0 M 22080 8330 l 25 0 M 22005 8355 l 25 0 M 22055 8355 l 25 0 M 22080 8355 l 25 0 M 22105 8355 l 25 0 M 22130 8355 l 25 0 M 22055 8380 l 25 0 M 22105 8380 l 25 0 M 22030 8405 l 25 0 M 22080 8405 l 25 0 M 22055 8430 l 25 0 M 22105 8430 l 25 0 M 22130 8430 l 25 0 M 22080 8455 l 25 0 M 22105 8455 l 25 0 M 22130 8480 l 25 0 M 22130 8155 l 0 25 M 22180 8155 l 0 25 M 22080 8180 l 0 25 M 22155 8180 l 0 25 M 22180 8180 l 0 25 M 22055 8205 l 0 25 M 22105 8205 l 0 25 M 22155 8205 l 0 25 M 22180 8205 l 0 25 M 22030 8230 l 0 25 M 22055 8230 l 0 25 M 22080 8230 l 0 25 M 22130 8230 l 0 25 M 22180 8230 l 0 25 M 22030 8255 l 0 25 M 22055 8255 l 0 25 M 22105 8255 l 0 25 M 22130 8255 l 0 25 M 22155 8255 l 0 25 M 22180 8255 l 0 25 M 22005 8280 l 0 25 M 22080 8280 l 0 25 M 22105 8280 l 0 25 M 22130 8280 l 0 25 M 22180 8280 l 0 25 M 22005 8305 l 0 25 M 22105 8305 l 0 25 M 22130 8305 l 0 25 M 22155 8305 l 0 25 M 22005 8330 l 0 25 M 22055 8330 l 0 25 M 22130 8330 l 0 25 M 22155 8330 l 0 25 M 22030 8355 l 0 25 M 22080 8355 l 0 25 M 22130 8355 l 0 25 M 22155 8355 l 0 25 M 22030 8380 l 0 25 M 22055 8380 l 0 25 M 22105 8380 l 0 25 M 22155 8380 l 0 25 M 22055 8405 l 0 25 M 22080 8405 l 0 25 M 22105 8405 l 0 25 M 22155 8405 l 0 25 M 22080 8430 l 0 25 M 22155 8430 l 0 25 M 22130 8455 l 0 25 M 22155 8455 l 0 25" stroke-width="3" /></g><g stroke="black" stroke-linecap="round" stroke-width="0.25"><g fill="#EEAAAA"><rect height="25" width="25" x="80" y="16380" /><rect height="25" width="25" x="105" y="16380" /><rect height="25" width="25" x="55" y="16405" /><rect height="25" width="25" x="80" y="16405" /><rect height="25" width="25" x="80" y="16430" /></g><g fill="#DDBB99"><rect height="25" width="25" x="55" y="16430" /><rect height="25" width="25" x="30" y="16455" /><rect height="25" width="25" x="55" y="16455" /><rect height="25" width="25" x="80" y="16455" /><rect height="25" width="25" x="30" y="16480" /></g><g fill="#BBDD99"><rect height="25" width="25" x="55" y="16480" /><rect height="25" width="25" x="30" y="16505" /><rect height="25" width="25" x="55" y="16505" /><rect height="25" width="25" x="30" y="16530" /><rect height="25" width="25" x="55" y="16530" /></g><g fill="#DD99BB"><rect height="25" width="25" x="80" y="16505" /><rect height="25" width="25" x="105" y="16505" /><rect height="25" width="25" x="80" y="16530" /><rect height="25" width="25" x="55" y="16555" /><rect height="25" width="25" x="80" y="16555" /></g><g fill="#99BBDD"><rect height="25" width="25" x="80" y="16330" /><rect height="25" width="25" x="105" y="16330" /><rect height="25" width="25" x="130" y="16330" /><rect height="25" width="25" x="130" y="16355" /><rect height="25" width="25" x="130" y="16380" /></g><g fill="#BB99DD"><rect height="25" width="25" x="30" y="16405" /><rect height="25" width="25" x="5" y="16430" /><rect height="25" width="25" x="30" y="16430" /><rect height="25" width="25" x="5" y="16455" /><rect height="25" width="25" x="5" y="16480" /></g><g fill="#CC88CC"><rect height="25" width="25" x="130" y="16480" /><rect height="25" width="25" x="130" y="16505" /><rect height="25" width="25" x="105" y="16530" /><rect height="25" width="25" x="130" y="16530" /><rect height="25" width="25" x="105" y="16555" /></g><g fill="#AAEEAA"><rect height="25" width="25" x="55" y="16355" /><rect height="25" width="25" x="80" y="16355" /><rect height="25" width="25" x="105" y="16355" /><rect height="25" width="25" x="30" y="16380" /><rect height="25" width="25" x="55" y="16380" /></g><g fill="#CCCC88"><rect height="25" width="25" x="130" y="16305" /><rect height="25" width="25" x="155" y="16305" /><rect height="25" width="25" x="155" y="16330" /><rect height="25" width="25" x="155" y="16355" /><rect height="25" width="25" x="155" y="16380" /></g><g fill="#88CCCC"><rect height="25" width="25" x="105" y="16405" /><rect height="25" width="25" x="130" y="16405" /><rect height="25" width="25" x="155" y="16405" /><rect height="25" width="25" x="105" y="16430" /><rect height="25" width="25" x="155" y="16430" /></g><g fill="#AAAAEE"><rect height="25" width="25" x="130" y="16430" /><rect height="25" width="25" x="105" y="16455" /><rect height="25" width="25" x="130" y="16455" /><rect height="25" width="25" x="80" y="16480" /><rect height="25" width="25" x="105" y="16480" /></g><g fill="#99DDBB"><rect height="25" width="25" x="130" y="16555" /><rect height="25" width="25" x="80" y="16580" /><rect height="25" width="25" x="105" y="16580" /><rect height="25" width="25" x="130" y="16580" /><rect height="25" width="25" x="130" y="16605" /></g><path d="M 130 16305 l 25 0 M 155 16305 l 25 0 M 80 16330 l 25 0 M 105 16330 l 25 0 M 130 16330 l 25 0 M 55 16355 l 25 0 M 80 16355 l 25 0 M 105 16355 l 25 0 M 30 16380 l 25 0 M 80 16380 l 25 0 M 105 16380 l 25 0 M 30 16405 l 25 0 M 55 16405 l 25 0 M 105 16405 l 25 0 M 130 16405 l 25 0 M 155 16405 l 25 0 M 5 16430 l 25 0 M 55 16430 l 25 0 M 130 16430 l 25 0 M 30 16455 l 25 0 M 80 16455 l 25 0 M 105 16455 l 25 0 M 155 16455 l 25 0 M 55 16480 l 25 0 M 80 16480 l 25 0 M 130 16480 l 25 0 M 5 16505 l 25 0 M 30 16505 l 25 0 M 80 16505 l 25 0 M 105 16505 l 25 0 M 105 16530 l 25 0 M 30 16555 l 25 0 M 55 16555 l 25 0 M 130 16555 l 25 0 M 55 16580 l 25 0 M 80 16580 l 25 0 M 105 16580 l 25 0 M 80 16605 l 25 0 M 105 16605 l 25 0 M 130 16630 l 25 0 M 130 16305 l 0 25 M 180 16305 l 0 25 M 80 16330 l 0 25 M 155 16330 l 0 25 M 180 16330 l 0 25 M 55 16355 l 0 25 M 130 16355 l 0 25 M 155 16355 l 0 25 M 180 16355 l 0 25 M 30 16380 l 0 25 M 80 16380 l 0 25 M 130 16380 l 0 25 M 155 16380 l 0 25 M 180 16380 l 0 25 M 30 16405 l 0 25 M 55 16405 l 0 25 M 105 16405 l 0 25 M 180 16405 l 0 25 M 5 16430 l 0 25 M 55 16430 l 0 25 M 80 16430 l 0 25 M 105 16430 l 0 25 M 130 16430 l 0 25 M 155 16430 l 0 25 M 180 16430 l 0 25 M 5 16455 l 0 25 M 30 16455 l 0 25 M 105 16455 l 0 25 M 155 16455 l 0 25 M 5 16480 l 0 25 M 30 16480 l 0 25 M 55 16480 l 0 25 M 80 16480 l 0 25 M 130 16480 l 0 25 M 155 16480 l 0 25 M 30 16505 l 0 25 M 80 16505 l 0 25 M 130 16505 l 0 25 M 155 16505 l 0 25 M 30 16530 l 0 25 M 80 16530 l 0 25 M 105 16530 l 0 25 M 155 16530 l 0 25 M 55 16555 l 0 25 M 105 16555 l 0 25 M 130 16555 l 0 25 M 155 16555 l 0 25 M 80 16580 l 0 25 M 155 16580 l 0 25 M 130 16605 l 0 25 M 155 16605 l 0 25" stroke-width="3" /></g><g stroke="black" stroke-linecap="round" stroke-width="0.25"><g fill="#EEAAAA"><rect height="25" width="25" x="4480" y="16380" /><rect height="25" width="25" x="4505" y="16380" /><rect height="25" width="25" x="4455" y="16405" /><rect height="25" width="25" x="4480" y="16405" /><rect height="25" width="25" x="4480" y="16430" /></g><g fill="#DDBB99"><rect height="25" width="25" x="4455" y="16430" /><rect height="25" width="25" x="4430" y="16455" /><rect height="25" width="25" x="4455" y="16455" /><rect height="25" width="25" x="4480" y="16455" /><rect height="25" width="25" x="4430" y="16480" /></g><g fill="#BBDD99"><rect height="25" width="25" x="4455" y="16480" /><rect height="25" width="25" x="4430" y="16505" /><rect height="25" width="25" x="4455" y="16505" /><rect height="25" width="25" x="4430" y="16530" /><rect height="25" width="25" x="4455" y="16530" /></g><g fill="#DD99BB"><rect height="25" width="25" x="4480" y="16505" /><rect height="25" width="25" x="4505" y="16505" /><rect height="25" width="25" x="4480" y="16530" /><rect height="25" width="25" x="4455" y="16555" /><rect height="25" width="25" x="4480" y="16555" /></g><g fill="#99BBDD"><rect height="25" width="25" x="4480" y="16330" /><rect height="25" width="25" x="4505" y="16330" /><rect height="25" width="25" x="4530" y="16330" /><rect height="25" width="25" x="4530" y="16355" /><rect height="25" width="25" x="4530" y="16380" /></g><g fill="#BB99DD"><rect height="25" width="25" x="4530" y="16480" /><rect height="25" width="25" x="4530" y="16505" /><rect height="25" width="25" x="4505" y="16530" /><rect height="25" width="25" x="4530" y="16530" /><rect height="25" width="25" x="4505" y="16555" /></g><g fill="#CC88CC"><rect height="25" width="25" x="4430" y="16405" /><rect height="25" width="25" x="4405" y="16430" /><rect height="25" width="25" x="4430" y="16430" /><rect height="25" width="25" x="4405" y="16455" /><rect height="25" width="25" x="4405" y="16480" /></g><g fill="#AAEEAA"><rect height="25" width="25" x="4455" y="16355" /><rect height="25" width="25" x="4480" y="16355" /><rect height="25" width="25" x="4505" y="16355" /><rect height="25" width="25" x="4430" y="16380" /><rect height="25" width="25" x="4455" y="16380" /></g><g fill="#CCCC88"><rect height="25" width="25" x="4530" y="16305" /><rect height="25" width="25" x="4555" y="16305" /><rect height="25" width="25" x="4555" y="16330" /><rect height="25" width="25" x="4555" y="16355" /><rect height="25" width="25" x="4555" y="16380" /></g><g fill="#88CCCC"><rect height="25" width="25" x="4505" y="16405" /><rect height="25" width="25" x="4530" y="16405" /><rect height="25" width="25" x="4555" y="16405" /><rect height="25" width="25" x="4505" y="16430" /><rect height="25" width="25" x="4555" y="16430" /></g><g fill="#AAAAEE"><rect height="25" width="25" x="4530" y="16430" /><rect height="25" width="25" x="4505" y="16455" /><rect height="25" width="25" x="4530" y="16455" /><rect height="25" width="25" x="4480" y="16480" /><rect height="25" width="25" x="4505" y="16480" /></g><g fill="#99DDBB"><rect height="25" width="25" x="4530" y="16555" /><rect height="25" width="25" x="4480" y="16580" /><rect height="25" width="25" x="4505" y="16580" /><rect height="25" width="25" x="4530" y="16580" /><rect height="25" width="25" x="4530" y="16605" /></g><path d="M 4530 16305 l 25 0 M 4555 16305 l 25 0 M 4480 16330 l 25 0 M 4505 16330 l 25 0 M 4530 16330 l 25 0 M 4455 16355 l 25 0 M 4480 16355 l 25 0 M 4505 16355 l 25 0 M 4430 16380 l 25 0 M 4480 16380 l 25 0 M 4505 16380 l 25 0 M 4430 16405 l 25 0 M 4455 16405 l 25 0 M 4505 16405 l 25 0 M 4530 16405 l 25 0 M 4555 16405 l 25 0 M 4405 16430 l 25 0 M 4455 16430 l 25 0 M 4530 16430 l 25 0 M 4430 16455 l 25 0 M 4480 16455 l 25 0 M 4505 16455 l 25 0 M 4555 16455 l 25 0 M 4455 16480 l 25 0 M 4480 16480 l 25 0 M 4530 16480 l 25 0 M 4405 16505 l 25 0 M 4430 16505 l 25 0 M 4480 16505 l 25 0 M 4505 16505 l 25 0 M 4505 16530 l 25 0 M 4430 16555 l 25 0 M 4455 16555 l 25 0 M 4530 16555 l 25 0 M 4455 16580 l 25 0 M 4480 16580 l 25 0 M 4505 16580 l 25 0 M 4480 16605 l 25 0 M 4505 16605 l 25 0 M 4530 16630 l 25 0 M 4530 16305 l 0 25 M 4580 16305 l 0 25 M 4480 16330 l 0 25 M 4555 16330 l 0 25 M 4580 16330 l 0 25 M 4455 16355 l 0 25 M 4530 16355 l 0 25 M 4555 16355 l 0 25 M 4580 16355 l 0 25 M 4430 16380 l 0 25 M 4480 16380 l 0 25 M 4530 16380 l 0 25 M 4555 16380 l 0 25 M 4580 16380 l 0 25 M 4430 16405 l 0 25 M 4455 16405 l 0 25 M 4505 16405 l 0 25 M 4580 16405 l 0 25 M 4405 16430 l 0 25 M 4455 16430 l 0 25 M 4480 16430 l 0 25 M 4505 16430 l 0 25 M 4530 16430 l 0 25 M 4555 16430 l 0 25 M 4580 16430 l 0 25 M 4405 16455 l 0 25 M 4430 16455 l 0 25 M 4505 16455 l 0 25 M 4555 16455 l 0 25 M 4405 16480 l 0 25 M 4430 16480 l 0 25 M 4455 16480 l 0 25 M 4480 16480 l 0 25 M 4530 16480 l 0 25 M 4555 16480 l 0 25 M 4430 16505 l 0 25 M 4480 16505 l 0 25 M 4530 16505 l 0 25 M 4555 16505 l 0 25 M 4430 16530 l 0 25 M 4480 16530 l 0 25 M 4505 16530 l 0 25 M 4555 16530 l 0 25 M 4455 16555 l 0 25 M 4505 16555 l 0 25 M 4530 16555 l 0 25 M 4555 16555 l 0 25 M 4480 16580 l 0 25 M 4555 16580 l 0 25 M 4530 16605 l 0 25 M 4555 16605 l 0 25" stroke-width="3" /></g><g stroke="black" stroke-linecap="round" stroke-width="0.25"><g fill="#EEAAAA"><rect height="25" width="25" x="8880" y="16380" /><rect height="25" width="25" x="8905" y="16380" /><rect height="25" width="25" x="8855" y="16405" /><rect height="25" width="25" x="8880" y="16405" /><rect height="25" width="25" x="8880" y="16430" /></g><g fill="#DDBB99"><rect height="25" width="25" x="8930" y="16505" /><rect height="25" width="25" x="8880" y="16530" /><rect height="25" width="25" x="8905" y="16530" /><rect height="25" width="25" x="8930" y="16530" /><rect height="25" width="25" x="8905" y="16555" /></g><g fill="#BBDD99"><rect height="25" width="25" x="8855" y="16430" /><rect height="25" width="25" x="8830" y="16455" /><rect height="25" width="25" x="8855" y="16455" /><rect height="25" width="25" x="8830" y="16480" /><rect height="25" width="25" x="8855" y="16480" /></g><g fill="#DD99BB"><rect height="25" width="25" x="8880" y="16455" /><rect height="25" width="25" x="8905" y="16455" /><rect height="25" width="25" x="8880" y="16480" /><rect height="25" width="25" x="8855" y="16505" /><rect height="25" width="25" x="8880" y="16505" /></g><g fill="#99BBDD"><rect height="25" width="25" x="8880" y="16330" /><rect height="25" width="25" x="8905" y="16330" /><rect height="25" width="25" x="8930" y="16330" /><rect height="25" width="25" x="8930" y="16355" /><rect height="25" width="25" x="8930" y="16380" /></g><g fill="#BB99DD"><rect height="25" width="25" x="8830" y="16405" /><rect height="25" width="25" x="8805" y="16430" /><rect height="25" width="25" x="8830" y="16430" /><rect height="25" width="25" x="8805" y="16455" /><rect height="25" width="25" x="8805" y="16480" /></g><g fill="#CC88CC"><rect height="25" width="25" x="8930" y="16430" /><rect height="25" width="25" x="8930" y="16455" /><rect height="25" width="25" x="8905" y="16480" /><rect height="25" width="25" x="8930" y="16480" /><rect height="25" width="25" x="8905" y="16505" /></g><g fill="#AAEEAA"><rect height="25" width="25" x="8855" y="16355" /><rect height="25" width="25" x="8880" y="16355" /><rect height="25" width="25" x="8905" y="16355" /><rect height="25" width="25" x="8830" y="16380" /><rect height="25" width="25" x="8855" y="16380" /></g><g fill="#CCCC88"><rect height="25" width="25" x="8930" y="16305" /><rect height="25" width="25" x="8955" y="16305" /><rect height="25" width="25" x="8955" y="16330" /><rect height="25" width="25" x="8955" y="16355" /><rect height="25" width="25" x="8955" y="16380" /></g><g fill="#88CCCC"><rect height="25" width="25" x="8905" y="16405" /><rect height="25" width="25" x="8930" y="16405" /><rect height="25" width="25" x="8955" y="16405" /><rect height="25" width="25" x="8905" y="16430" /><rect height="25" width="25" x="8955" y="16430" /></g><g fill="#AAAAEE"><rect height="25" width="25" x="8830" y="16505" /><rect height="25" width="25" x="8830" y="16530" /><rect height="25" width="25" x="8855" y="16530" /><rect height="25" width="25" x="8855" y="16555" /><rect height="25" width="25" x="8880" y="16555" /></g><g fill="#99DDBB"><rect height="25" width="25" x="8930" y="16555" /><rect height="25" width="25" x="8880" y="16580" /><rect height="25" width="25" x="8905" y="16580" /><rect height="25" width="25" x="8930" y="16580" /><rect height="25" width="25" x="8930" y="16605" /></g><path d="M 8930 16305 l 25 0 M 8955 16305 l 25 0 M 8880 16330 l 25 0 M 8905 16330 l 25 0 M 8930 16330 l 25 0 M 8855 16355 l 25 0 M 8880 16355 l 25 0 M 8905 16355 l 25 0 M 8830 16380 l 25 0 M 8880 16380 l 25 0 M 8905 16380 l 25 0 M 8830 16405 l 25 0 M 8855 16405 l 25 0 M 8905 16405 l 25 0 M 8930 16405 l 25 0 M 8955 16405 l 25 0 M 8805 16430 l 25 0 M 8855 16430 l 25 0 M 8930 16430 l 25 0 M 8830 16455 l 25 0 M 8880 16455 l 25 0 M 8905 16455 l 25 0 M 8955 16455 l 25 0 M 8905 16480 l 25 0 M 8805 16505 l 25 0 M 8830 16505 l 25 0 M 8855 16505 l 25 0 M 8930 16505 l 25 0 M 8855 16530 l 25 0 M 8880 16530 l 25 0 M 8905 16530 l 25 0 M 8830 16555 l 25 0 M 8880 16555 l 25 0 M 8930 16555 l 25 0 M 8855 16580 l 25 0 M 8880 16580 l 25 0 M 8905 16580 l 25 0 M 8880 16605 l 25 0 M 8905 16605 l 25 0 M 8930 16630 l 25 0 M 8930 16305 l 0 25 M 8980 16305 l 0 25 M 8880 16330 l 0 25 M 8955 16330 l 0 25 M 8980 16330 l 0 25 M 8855 16355 l 0 25 M 8930 16355 l 0 25 M 8955 16355 l 0 25 M 8980 16355 l 0 25 M 8830 16380 l 0 25 M 8880 16380 l 0 25 M 8930 16380 l 0 25 M 8955 16380 l 0 25 M 8980 16380 l 0 25 M 8830 16405 l 0 25 M 8855 16405 l 0 25 M 8905 16405 l 0 25 M 8980 16405 l 0 25 M 8805 16430 l 0 25 M 8855 16430 l 0 25 M 8880 16430 l 0 25 M 8905 16430 l 0 25 M 8930 16430 l 0 25 M 8955 16430 l 0 25 M 8980 16430 l 0 25 M 8805 16455 l 0 25 M 8830 16455 l 0 25 M 8880 16455 l 0 25 M 8930 16455 l 0 25 M 8955 16455 l 0 25 M 8805 16480 l 0 25 M 8830 16480 l 0 25 M 8880 16480 l 0 25 M 8905 16480 l 0 25 M 8955 16480 l 0 25 M 8830 16505 l 0 25 M 8855 16505 l 0 25 M 8905 16505 l 0 25 M 8930 16505 l 0 25 M 8955 16505 l 0 25 M 8830 16530 l 0 25 M 8880 16530 l 0 25 M 8955 16530 l 0 25 M 8855 16555 l 0 25 M 8905 16555 l 0 25 M 8930 16555 l 0 25 M 8955 16555 l 0 25 M 8880 16580 l 0 25 M 8955 16580 l 0 25 M 8930 16605 l 0 25 M 8955 16605 l 0 25" stroke-width="3" /></g><g stroke="black" stroke-linecap="round" stroke-width="0.25"><g fill="#EEAAAA"><rect height="25" width="25" x="13280" y="16380" /><rect height="25" width="25" x="13305" y="16380" /><rect height="25" width="25" x="13255" y="16405" /><rect height="25" width="25" x="13280" y="16405" /><rect height="25" width="25" x="13280" y="16430" /></g><g fill="#DDBB99"><rect height="25" width="25" x="13330" y="16505" /><rect height="25" width="25" x="13280" y="16530" /><rect height="25" width="25" x="13305" y="16530" /><rect height="25" width="25" x="13330" y="16530" /><rect height="25" width="25" x="13305" y="16555" /></g><g fill="#BBDD99"><rect height="25" width="25" x="13255" y="16430" /><rect height="25" width="25" x="13230" y="16455" /><rect height="25" width="25" x="13255" y="16455" /><rect height="25" width="25" x="13230" y="16480" /><rect height="25" width="25" x="13255" y="16480" /></g><g fill="#DD99BB"><rect height="25" width="25" x="13280" y="16455" /><rect height="25" width="25" x="13305" y="16455" /><rect height="25" width="25" x="13280" y="16480" /><rect height="25" width="25" x="13255" y="16505" /><rect height="25" width="25" x="13280" y="16505" /></g><g fill="#99BBDD"><rect height="25" width="25" x="13280" y="16330" /><rect height="25" width="25" x="13305" y="16330" /><rect height="25" width="25" x="13330" y="16330" /><rect height="25" width="25" x="13330" y="16355" /><rect height="25" width="25" x="13330" y="16380" /></g><g fill="#BB99DD"><rect height="25" width="25" x="13330" y="16430" /><rect height="25" width="25" x="13330" y="16455" /><rect height="25" width="25" x="13305" y="16480" /><rect height="25" width="25" x="13330" y="16480" /><rect height="25" width="25" x="13305" y="16505" /></g><g fill="#CC88CC"><rect height="25" width="25" x="13230" y="16405" /><rect height="25" width="25" x="13205" y="16430" /><rect height="25" width="25" x="13230" y="16430" /><rect height="25" width="25" x="13205" y="16455" /><rect height="25" width="25" x="13205" y="16480" /></g><g fill="#AAEEAA"><rect height="25" width="25" x="13255" y="16355" /><rect height="25" width="25" x="13280" y="16355" /><rect height="25" width="25" x="13305" y="16355" /><rect height="25" width="25" x="13230" y="16380" /><rect height="25" width="25" x="13255" y="16380" /></g><g fill="#CCCC88"><rect height="25" width="25" x="13330" y="16305" /><rect height="25" width="25" x="13355" y="16305" /><rect height="25" width="25" x="13355" y="16330" /><rect height="25" width="25" x="13355" y="16355" /><rect height="25" width="25" x="13355" y="16380" /></g><g fill="#88CCCC"><rect height="25" width="25" x="13305" y="16405" /><rect height="25" width="25" x="13330" y="16405" /><rect height="25" width="25" x="13355" y="16405" /><rect height="25" width="25" x="13305" y="16430" /><rect height="25" width="25" x="13355" y="16430" /></g><g fill="#AAAAEE"><rect height="25" width="25" x="13230" y="16505" /><rect height="25" width="25" x="13230" y="16530" /><rect height="25" width="25" x="13255" y="16530" /><rect height="25" width="25" x="13255" y="16555" /><rect height="25" width="25" x="13280" y="16555" /></g><g fill="#99DDBB"><rect height="25" width="25" x="13330" y="16555" /><rect height="25" width="25" x="13280" y="16580" /><rect height="25" width="25" x="13305" y="16580" /><rect height="25" width="25" x="13330" y="16580" /><rect height="25" width="25" x="13330" y="16605" /></g><path d="M 13330 16305 l 25 0 M 13355 16305 l 25 0 M 13280 16330 l 25 0 M 13305 16330 l 25 0 M 13330 16330 l 25 0 M 13255 16355 l 25 0 M 13280 16355 l 25 0 M 13305 16355 l 25 0 M 13230 16380 l 25 0 M 13280 16380 l 25 0 M 13305 16380 l 25 0 M 13230 16405 l 25 0 M 13255 16405 l 25 0 M 13305 16405 l 25 0 M 13330 16405 l 25 0 M 13355 16405 l 25 0 M 13205 16430 l 25 0 M 13255 16430 l 25 0 M 13330 16430 l 25 0 M 13230 16455 l 25 0 M 13280 16455 l 25 0 M 13305 16455 l 25 0 M 13355 16455 l 25 0 M 13305 16480 l 25 0 M 13205 16505 l 25 0 M 13230 16505 l 25 0 M 13255 16505 l 25 0 M 13330 16505 l 25 0 M 13255 16530 l 25 0 M 13280 16530 l 25 0 M 13305 16530 l 25 0 M 13230 16555 l 25 0 M 13280 16555 l 25 0 M 13330 16555 l 25 0 M 13255 16580 l 25 0 M 13280 16580 l 25 0 M 13305 16580 l 25 0 M 13280 16605 l 25 0 M 13305 16605 l 25 0 M 13330 16630 l 25 0 M 13330 16305 l 0 25 M 13380 16305 l 0 25 M 13280 16330 l 0 25 M 13355 16330 l 0 25 M 13380 16330 l 0 25 M 13255 16355 l 0 25 M 13330 16355 l 0 25 M 13355 16355 l 0 25 M 13380 16355 l 0 25 M 13230 16380 l 0 25 M 13280 16380 l 0 25 M 13330 16380 l 0 25 M 13355 16380 l 0 25 M 13380 16380 l 0 25 M 13230 16405 l 0 25 M 13255 16405 l 0 25 M 13305 16405 l 0 25 M 13380 16405 l 0 25 M 13205 16430 l 0 25 M 13255 16430 l 0 25 M 13280 16430 l 0 25 M 13305 16430 l 0 25 M 13330 16430 l 0 25 M 13355 16430 l 0 25 M 13380 16430 l 0 25 M 13205 16455 l 0 25 M 13230 16455 l 0 25 M 13280 16455 l 0 25 M 13330 16455 l 0 25 M 13355 16455 l 0 25 M 13205 16480 l 0 25 M 13230 16480 l 0 25 M 13280 16480 l 0 25 M 13305 16480 l 0 25 M 13355 16480 l 0 25 M 13230 16505 l 0 25 M 13255 16505 l 0 25 M 13305 16505 l 0 25 M 13330 16505 l 0 25 M 13355 16505 l 0 25 M 13230 16530 l 0 25 M 13280 16530 l 0 25 M 13355 16530 l 0 25 M 13255 16555 l 0 25 M 13305 16555 l 0 25 M 13330 16555 l 0 25 M 13355 16555 l 0 25 M 13280 16580 l 0 25 M 13355 16580 l 0 25 M 13330 16605 l 0 25 M 13355 16605 l 0 25" stroke-width="3" /></g><g stroke="black" stroke-linecap="round" stroke-width="0.25"><g fill="#EEAAAA"><rect height="25" width="25" x="17630" y="16405" /><rect height="25" width="25" x="17655" y="16405" /><rect height="25" width="25" x="17605" y="16430" /><rect height="25" width="25" x="17630" y="16430" /><rect height="25" width="25" x="17630" y="16455" /></g><g fill="#DDBB99"><rect height="25" width="25" x="17705" y="16480" /><rect height="25" width="25" x="17655" y="16505" /><rect height="25" width="25" x="17680" y="16505" /><rect height="25" width="25" x="17705" y="16505" /><rect height="25" width="25" x="17680" y="16530" /></g><g fill="#BBDD99"><rect height="25" width="25" x="17730" y="16405" /><rect height="25" width="25" x="17755" y="16405" /><rect height="25" width="25" x="17730" y="16430" /><rect height="25" width="25" x="17755" y="16430" /><rect height="25" width="25" x="17730" y="16455" /></g><g fill="#DD99BB"><rect height="25" width="25" x="17680" y="16380" /><rect height="25" width="25" x="17705" y="16380" /><rect height="25" width="25" x="17680" y="16405" /><rect height="25" width="25" x="17655" y="16430" /><rect height="25" width="25" x="17680" y="16430" /></g><g fill="#99BBDD"><rect height="25" width="25" x="17680" y="16330" /><rect height="25" width="25" x="17705" y="16330" /><rect height="25" width="25" x="17730" y="16330" /><rect height="25" width="25" x="17730" y="16355" /><rect height="25" width="25" x="17730" y="16380" /></g><g fill="#BB99DD"><rect height="25" width="25" x="17705" y="16405" /><rect height="25" width="25" x="17705" y="16430" /><rect height="25" width="25" x="17680" y="16455" /><rect height="25" width="25" x="17705" y="16455" /><rect height="25" width="25" x="17680" y="16480" /></g><g fill="#CC88CC"><rect height="25" width="25" x="17730" y="16480" /><rect height="25" width="25" x="17730" y="16505" /><rect height="25" width="25" x="17705" y="16530" /><rect height="25" width="25" x="17730" y="16530" /><rect height="25" width="25" x="17705" y="16555" /></g><g fill="#AAEEAA"><rect height="25" width="25" x="17655" y="16355" /><rect height="25" width="25" x="17680" y="16355" /><rect height="25" width="25" x="17705" y="16355" /><rect height="25" width="25" x="17630" y="16380" /><rect height="25" width="25" x="17655" y="16380" /></g><g fill="#CCCC88"><rect height="25" width="25" x="17730" y="16305" /><rect height="25" width="25" x="17755" y="16305" /><rect height="25" width="25" x="17755" y="16330" /><rect height="25" width="25" x="17755" y="16355" /><rect height="25" width="25" x="17755" y="16380" /></g><g fill="#88CCCC"><rect height="25" width="25" x="17605" y="16455" /><rect height="25" width="25" x="17655" y="16455" /><rect height="25" width="25" x="17605" y="16480" /><rect height="25" width="25" x="17630" y="16480" /><rect height="25" width="25" x="17655" y="16480" /></g><g fill="#AAAAEE"><rect height="25" width="25" x="17630" y="16505" /><rect height="25" width="25" x="17630" y="16530" /><rect height="25" width="25" x="17655" y="16530" /><rect height="25" width="25" x="17655" y="16555" /><rect height="25" width="25" x="17680" y="16555" /></g><g fill="#99DDBB"><rect height="25" width="25" x="17730" y="16555" /><rect height="25" width="25" x="17680" y="16580" /><rect height="25" width="25" x="17705" y="16580" /><rect height="25" width="25" x="17730" y="16580" /><rect height="25" width="25" x="17730" y="16605" /></g><path d="M 17730 16305 l 25 0 M 17755 16305 l 25 0 M 17680 16330 l 25 0 M 17705 16330 l 25 0 M 17730 16330 l 25 0 M 17655 16355 l 25 0 M 17680 16355 l 25 0 M 17705 16355 l 25 0 M 17630 16380 l 25 0 M 17680 16380 l 25 0 M 17705 16380 l 25 0 M 17630 16405 l 25 0 M 17655 16405 l 25 0 M 17705 16405 l 25 0 M 17730 16405 l 25 0 M 17755 16405 l 25 0 M 17605 16430 l 25 0 M 17655 16430 l 25 0 M 17605 16455 l 25 0 M 17655 16455 l 25 0 M 17680 16455 l 25 0 M 17755 16455 l 25 0 M 17630 16480 l 25 0 M 17705 16480 l 25 0 M 17730 16480 l 25 0 M 17605 16505 l 25 0 M 17630 16505 l 25 0 M 17655 16505 l 25 0 M 17680 16505 l 25 0 M 17655 16530 l 25 0 M 17705 16530 l 25 0 M 17630 16555 l 25 0 M 17680 16555 l 25 0 M 17730 16555 l 25 0 M 17655 16580 l 25 0 M 17680 16580 l 25 0 M 17705 16580 l 25 0 M 17680 16605 l 25 0 M 17705 16605 l 25 0 M 17730 16630 l 25 0 M 17730 16305 l 0 25 M 17780 16305 l 0 25 M 17680 16330 l 0 25 M 17755 16330 l 0 25 M 17780 16330 l 0 25 M 17655 16355 l 0 25 M 17730 16355 l 0 25 M 17755 16355 l 0 25 M 17780 16355 l 0 25 M 17630 16380 l 0 25 M 17680 16380 l 0 25 M 17730 16380 l 0 25 M 17755 16380 l 0 25 M 17780 16380 l 0 25 M 17630 16405 l 0 25 M 17680 16405 l 0 25 M 17705 16405 l 0 25 M 17730 16405 l 0 25 M 17780 16405 l 0 25 M 17605 16430 l 0 25 M 17655 16430 l 0 25 M 17705 16430 l 0 25 M 17730 16430 l 0 25 M 17780 16430 l 0 25 M 17605 16455 l 0 25 M 17630 16455 l 0 25 M 17655 16455 l 0 25 M 17680 16455 l 0 25 M 17730 16455 l 0 25 M 17755 16455 l 0 25 M 17605 16480 l 0 25 M 17680 16480 l 0 25 M 17705 16480 l 0 25 M 17730 16480 l 0 25 M 17755 16480 l 0 25 M 17630 16505 l 0 25 M 17655 16505 l 0 25 M 17730 16505 l 0 25 M 17755 16505 l 0 25 M 17630 16530 l 0 25 M 17680 16530 l 0 25 M 17705 16530 l 0 25 M 17755 16530 l 0 25 M 17655 16555 l 0 25 M 17705 16555 l 0 25 M 17730 16555 l 0 25 M 17755 16555 l 0 25 M 17680 16580 l 0 25 M 17755 16580 l 0 25 M 17730 16605 l 0 25 M 17755 16605 l 0 25" stroke-width="3" /></g><g stroke="black" stroke-linecap="round" stroke-width="0.25"><g fill="#EEAAAA"><rect height="25" width="25" x="22030" y="16405" /><rect height="25" width="25" x="22055" y="16405" /><rect height="25" width="25" x="22005" y="16430" /><rect height="25" width="25" x="22030" y="16430" /><rect height="25" width="25" x="22030" y="16455" /></g><g fill="#DDBB99"><rect height="25" width="25" x="22105" y="16480" /><rect height="25" width="25" x="22055" y="16505" /><rect height="25" width="25" x="22080" y="16505" /><rect height="25" width="25" x="22105" y="16505" /><rect height="25" width="25" x="22080" y="16530" /></g><g fill="#BBDD99"><rect height="25" width="25" x="22130" y="16405" /><rect height="25" width="25" x="22155" y="16405" /><rect height="25" width="25" x="22130" y="16430" /><rect height="25" width="25" x="22155" y="16430" /><rect height="25" width="25" x="22130" y="16455" /></g><g fill="#DD99BB"><rect height="25" width="25" x="22080" y="16380" /><rect height="25" width="25" x="22105" y="16380" /><rect height="25" width="25" x="22080" y="16405" /><rect height="25" width="25" x="22055" y="16430" /><rect height="25" width="25" x="22080" y="16430" /></g><g fill="#99BBDD"><rect height="25" width="25" x="22080" y="16330" /><rect height="25" width="25" x="22105" y="16330" /><rect height="25" width="25" x="22130" y="16330" /><rect height="25" width="25" x="22130" y="16355" /><rect height="25" width="25" x="22130" y="16380" /></g><g fill="#BB99DD"><rect height="25" width="25" x="22130" y="16480" /><rect height="25" width="25" x="22130" y="16505" /><rect height="25" width="25" x="22105" y="16530" /><rect height="25" width="25" x="22130" y="16530" /><rect height="25" width="25" x="22105" y="16555" /></g><g fill="#CC88CC"><rect height="25" width="25" x="22105" y="16405" /><rect height="25" width="25" x="22105" y="16430" /><rect height="25" width="25" x="22080" y="16455" /><rect height="25" width="25" x="22105" y="16455" /><rect height="25" width="25" x="22080" y="16480" /></g><g fill="#AAEEAA"><rect height="25" width="25" x="22055" y="16355" /><rect height="25" width="25" x="22080" y="16355" /><rect height="25" width="25" x="22105" y="16355" /><rect height="25" width="25" x="22030" y="16380" /><rect height="25" width="25" x="22055" y="16380" /></g><g fill="#CCCC88"><rect height="25" width="25" x="22130" y="16305" /><rect height="25" width="25" x="22155" y="16305" /><rect height="25" width="25" x="22155" y="16330" /><rect height="25" width="25" x="22155" y="16355" /><rect height="25" width="25" x="22155" y="16380" /></g><g fill="#88CCCC"><rect height="25" width="25" x="22005" y="16455" /><rect height="25" width="25" x="22055" y="16455" /><rect height="25" width="25" x="22005" y="16480" /><rect height="25" width="25" x="22030" y="16480" /><rect height="25" width="25" x="22055" y="16480" /></g><g fill="#AAAAEE"><rect height="25" width="25" x="22030" y="16505" /><rect height="25" width="25" x="22030" y="16530" /><rect height="25" width="25" x="22055" y="16530" /><rect height="25" width="25" x="22055" y="16555" /><rect height="25" width="25" x="22080" y="16555" /></g><g fill="#99DDBB"><rect height="25" width="25" x="22130" y="16555" /><rect height="25" width="25" x="22080" y="16580" /><rect height="25" width="25" x="22105" y="16580" /><rect height="25" width="25" x="22130" y="16580" /><rect height="25" width="25" x="22130" y="16605" /></g><path d="M 22130 16305 l 25 0 M 22155 16305 l 25 0 M 22080 16330 l 25 0 M 22105 16330 l 25 0 M 22130 16330 l 25 0 M 22055 16355 l 25 0 M 22080 16355 l 25 0 M 22105 16355 l 25 0 M 22030 16380 l 25 0 M 22080 16380 l 25 0 M 22105 16380 l 25 0 M 22030 16405 l 25 0 M 22055 16405 l 25 0 M 22105 16405 l 25 0 M 22130 16405 l 25 0 M 22155 16405 l 25 0 M 22005 16430 l 25 0 M 22055 16430 l 25 0 M 22005 16455 l 25 0 M 22055 16455 l 25 0 M 22080 16455 l 25 0 M 22155 16455 l 25 0 M 22030 16480 l 25 0 M 22105 16480 l 25 0 M 22130 16480 l 25 0 M 22005 16505 l 25 0 M 22030 16505 l 25 0 M 22055 16505 l 25 0 M 22080 16505 l 25 0 M 22055 16530 l 25 0 M 22105 16530 l 25 0 M 22030 16555 l 25 0 M 22080 16555 l 25 0 M 22130 16555 l 25 0 M 22055 16580 l 25 0 M 22080 16580 l 25 0 M 22105 16580 l 25 0 M 22080 16605 l 25 0 M 22105 16605 l 25 0 M 22130 16630 l 25 0 M 22130 16305 l 0 25 M 22180 16305 l 0 25 M 22080 16330 l 0 25 M 22155 16330 l 0 25 M 22180 16330 l 0 25 M 22055 16355 l 0 25 M 22130 16355 l 0 25 M 22155 16355 l 0 25 M 22180 16355 l 0 25 M 22030 16380 l 0 25 M 22080 16380 l 0 25 M 22130 16380 l 0 25 M 22155 16380 l 0 25 M 22180 16380 l 0 25 M 22030 16405 l 0 25 M 22080 16405 l 0 25 M 22105 16405 l 0 25 M 22130 16405 l 0 25 M 22180 16405 l 0 25 M 22005 16430 l 0 25 M 22055 16430 l 0 25 M 22105 16430 l 0 25 M 22130 16430 l 0 25 M 22180 16430 l 0 25 M 22005 16455 l 0 25 M 22030 16455 l 0 25 M 22055 16455 l 0 25 M 22080 16455 l 0 25 M 22130 16455 l 0 25 M 22155 16455 l 0 25 M 22005 16480 l 0 25 M 22080 16480 l 0 25 M 22105 16480 l 0 25 M 22130 16480 l 0 25 M 22155 16480 l 0 25 M 22030 16505 l 0 25 M 22055 16505 l 0 25 M 22130 16505 l 0 25 M 22155 16505 l 0 25 M 22030 16530 l 0 25 M 22080 16530 l 0 25 M 22105 16530 l 0 25 M 22155 16530 l 0 25 M 22055 16555 l 0 25 M 22105 16555 l 0 25 M 22130 16555 l 0 25 M 22155 16555 l 0 25 M 22080 16580 l 0 25 M 22155 16580 l 0 25 M 22130 16605 l 0 25 M 22155 16605 l 0 25" stroke-width="3" /></g></svg>